<?xml version="1.0" encoding="UTF-8" standalone="no"?>
<!DOCTYPE svg PUBLIC "-//W3C//DTD SVG 1.1//EN"
 "http://www.w3.org/Graphics/SVG/1.1/DTD/svg11.dtd">
<!-- Generated by graphviz version 2.40.1 (20161225.0304)
 -->
<!-- Title: ninja Pages: 1 -->
<svg width="573pt" height="29pt"
 viewBox="0.00 0.00 573.00 28.50" xmlns="http://www.w3.org/2000/svg" xmlns:xlink="http://www.w3.org/1999/xlink">
<g id="graph0" class="graph" transform="scale(1 1) rotate(0) translate(4 24.5)">
<title>ninja</title>
<polygon fill="#ffffff" stroke="transparent" points="-4,4 -4,-24.5 569,-24.5 569,4 -4,4"/>
<!-- 0x560ff437e950 -->
<g id="node1" class="node">
<title>0x560ff437e950</title>
<polygon fill="none" stroke="#000000" points="565,-19 511,-19 511,0 565,0 565,-19"/>
<text text-anchor="middle" x="538" y="-7" font-family="Times,serif" font-size="10.00" fill="#000000">prog</text>
</g>
<!-- 0x560ff437e7c0 -->
<g id="node2" class="node">
<title>0x560ff437e7c0</title>
<polygon fill="none" stroke="#000000" points="438,-19 384,-19 384,0 438,0 438,-19"/>
<text text-anchor="middle" x="411" y="-7" font-family="Times,serif" font-size="10.00" fill="#000000">test.bin</text>
</g>
<!-- 0x560ff437e7c0&#45;&gt;0x560ff437e950 -->
<g id="edge1" class="edge">
<title>0x560ff437e7c0&#45;&gt;0x560ff437e950</title>
<path fill="none" stroke="#000000" d="M438.2447,-9.5C456.492,-9.5 480.746,-9.5 500.7693,-9.5"/>
<polygon fill="#000000" stroke="#000000" points="500.8004,-13.0001 510.8004,-9.5 500.8003,-6.0001 500.8004,-13.0001"/>
<text text-anchor="middle" x="474.5" y="-12.5" font-family="Times,serif" font-size="10.00" fill="#000000"> program</text>
</g>
<!-- 0x560ff437e6a0 -->
<g id="node3" class="node">
<title>0x560ff437e6a0</title>
<polygon fill="none" stroke="#000000" points="326,-19 272,-19 272,0 326,0 326,-19"/>
<text text-anchor="middle" x="299" y="-7" font-family="Times,serif" font-size="10.00" fill="#000000">test.asc</text>
</g>
<!-- 0x560ff437e6a0&#45;&gt;0x560ff437e7c0 -->
<g id="edge2" class="edge">
<title>0x560ff437e6a0&#45;&gt;0x560ff437e7c0</title>
<path fill="none" stroke="#000000" d="M326.1121,-9.5C340.3143,-9.5 357.9303,-9.5 373.4272,-9.5"/>
<polygon fill="#000000" stroke="#000000" points="373.7494,-13.0001 383.7494,-9.5 373.7494,-6.0001 373.7494,-13.0001"/>
<text text-anchor="middle" x="355" y="-12.5" font-family="Times,serif" font-size="10.00" fill="#000000"> pack</text>
</g>
<!-- 0x560ff437e460 -->
<g id="node4" class="node">
<title>0x560ff437e460</title>
<polygon fill="none" stroke="#000000" points="190,-19 136,-19 136,0 190,0 190,-19"/>
<text text-anchor="middle" x="163" y="-7" font-family="Times,serif" font-size="10.00" fill="#000000">test.json</text>
</g>
<!-- 0x560ff437e460&#45;&gt;0x560ff437e6a0 -->
<g id="edge3" class="edge">
<title>0x560ff437e460&#45;&gt;0x560ff437e6a0</title>
<path fill="none" stroke="#000000" d="M190.1948,-9.5C210.6717,-9.5 238.9826,-9.5 261.5927,-9.5"/>
<polygon fill="#000000" stroke="#000000" points="261.8524,-13.0001 271.8524,-9.5 261.8523,-6.0001 261.8524,-13.0001"/>
<text text-anchor="middle" x="231" y="-12.5" font-family="Times,serif" font-size="10.00" fill="#000000"> placeroute</text>
</g>
<!-- 0x560ff437e500 -->
<g id="node5" class="node">
<title>0x560ff437e500</title>
<polygon fill="none" stroke="#000000" points="54,-19 0,-19 0,0 54,0 54,-19"/>
<text text-anchor="middle" x="27" y="-7" font-family="Times,serif" font-size="10.00" fill="#000000">test.v</text>
</g>
<!-- 0x560ff437e500&#45;&gt;0x560ff437e460 -->
<g id="edge4" class="edge">
<title>0x560ff437e500&#45;&gt;0x560ff437e460</title>
<path fill="none" stroke="#000000" d="M54.1948,-9.5C74.6717,-9.5 102.9826,-9.5 125.5927,-9.5"/>
<polygon fill="#000000" stroke="#000000" points="125.8524,-13.0001 135.8524,-9.5 125.8523,-6.0001 125.8524,-13.0001"/>
<text text-anchor="middle" x="95" y="-12.5" font-family="Times,serif" font-size="10.00" fill="#000000"> synthesize</text>
</g>
</g>
</svg>
