<?xml version="1.0" encoding="UTF-8" standalone="no"?>
<!DOCTYPE svg PUBLIC "-//W3C//DTD SVG 1.1//EN"
 "http://www.w3.org/Graphics/SVG/1.1/DTD/svg11.dtd">
<!-- Generated by graphviz version 2.40.1 (20161225.0304)
 -->
<!-- Title: top Pages: 1 -->
<svg width="397pt" height="121pt"
 viewBox="0.00 0.00 397.30 121.00" xmlns="http://www.w3.org/2000/svg" xmlns:xlink="http://www.w3.org/1999/xlink">
<g id="graph0" class="graph" transform="scale(1 1) rotate(0) translate(4 117)">
<title>top</title>
<polygon fill="#ffffff" stroke="transparent" points="-4,4 -4,-117 393.3036,-117 393.3036,4 -4,4"/>
<text text-anchor="middle" x="194.6518" y="-7.8" font-family="Times,serif" font-size="14.00" fill="#000000">top</text>
<!-- n1 -->
<g id="node1" class="node">
<title>n1</title>
<polygon fill="none" stroke="#000000" points="80.2975,-87.5442 80.2975,-102.4558 56.7498,-113 23.4484,-113 -.0993,-102.4558 -.0993,-87.5442 23.4484,-77 56.7498,-77 80.2975,-87.5442"/>
<text text-anchor="middle" x="40.0991" y="-91.3" font-family="Times,serif" font-size="14.00" fill="#000000">BTN_1</text>
</g>
<!-- c7 -->
<g id="node4" class="node">
<title>c7</title>
<polygon fill="none" stroke="#000000" points="116.1981,-45 116.1981,-91 211.1981,-91 211.1981,-45 116.1981,-45"/>
<text text-anchor="middle" x="129.1981" y="-75.8" font-family="Times,serif" font-size="14.00" fill="#000000">A</text>
<polyline fill="none" stroke="#000000" points="116.1981,-68 142.1981,-68 "/>
<text text-anchor="middle" x="129.1981" y="-52.8" font-family="Times,serif" font-size="14.00" fill="#000000">B</text>
<polyline fill="none" stroke="#000000" points="142.1981,-45 142.1981,-91 "/>
<text text-anchor="middle" x="163.6981" y="-71.8" font-family="Times,serif" font-size="14.00" fill="#000000">$1</text>
<text text-anchor="middle" x="163.6981" y="-56.8" font-family="Times,serif" font-size="14.00" fill="#000000">$and</text>
<polyline fill="none" stroke="#000000" points="185.1981,-45 185.1981,-91 "/>
<text text-anchor="middle" x="198.1981" y="-64.3" font-family="Times,serif" font-size="14.00" fill="#000000">Y</text>
</g>
<!-- n1&#45;&gt;c7 -->
<g id="edge1" class="edge">
<title>n1:e&#45;&gt;c7:w</title>
<path fill="none" stroke="#000000" d="M80.0991,-95C93.401,-95 97.3107,-86.2073 106.21,-82.0857"/>
<polygon fill="#000000" stroke="#000000" points="107.1247,-85.4702 116.1981,-80 105.6938,-78.618 107.1247,-85.4702"/>
</g>
<!-- n2 -->
<g id="node2" class="node">
<title>n2</title>
<polygon fill="none" stroke="#000000" points="80.2975,-33.5442 80.2975,-48.4558 56.7498,-59 23.4484,-59 -.0993,-48.4558 -.0993,-33.5442 23.4484,-23 56.7498,-23 80.2975,-33.5442"/>
<text text-anchor="middle" x="40.0991" y="-37.3" font-family="Times,serif" font-size="14.00" fill="#000000">BTN_3</text>
</g>
<!-- n2&#45;&gt;c7 -->
<g id="edge2" class="edge">
<title>n2:e&#45;&gt;c7:w</title>
<path fill="none" stroke="#000000" d="M80.0991,-41C93.401,-41 97.3107,-49.7927 106.21,-53.9143"/>
<polygon fill="#000000" stroke="#000000" points="105.6938,-57.382 116.1981,-56 107.1247,-50.5298 105.6938,-57.382"/>
</g>
<!-- n3 -->
<g id="node3" class="node">
<title>n3</title>
<polygon fill="none" stroke="#000000" points="389.3564,-60.5442 389.3564,-75.4558 347.7038,-86 288.798,-86 247.1454,-75.4558 247.1454,-60.5442 288.798,-50 347.7038,-50 389.3564,-60.5442"/>
<text text-anchor="middle" x="318.2509" y="-64.3" font-family="Times,serif" font-size="14.00" fill="#000000">LED_GREEN2</text>
</g>
<!-- c7&#45;&gt;n3 -->
<g id="edge3" class="edge">
<title>c7:e&#45;&gt;n3:w</title>
<path fill="none" stroke="#000000" d="M211.1981,-68C223.2157,-68 228.4734,-68 237.1111,-68"/>
<polygon fill="#000000" stroke="#000000" points="237.2509,-71.5001 247.2509,-68 237.2509,-64.5001 237.2509,-71.5001"/>
</g>
</g>
</svg>
