<?xml version="1.0" encoding="UTF-8" standalone="no"?>
<!DOCTYPE svg PUBLIC "-//W3C//DTD SVG 1.1//EN"
 "http://www.w3.org/Graphics/SVG/1.1/DTD/svg11.dtd">
<!-- Generated by graphviz version 2.40.1 (20161225.0304)
 -->
<!-- Title: top Pages: 1 -->
<svg width="537pt" height="229pt"
 viewBox="0.00 0.00 537.30 229.00" xmlns="http://www.w3.org/2000/svg" xmlns:xlink="http://www.w3.org/1999/xlink">
<g id="graph0" class="graph" transform="scale(1 1) rotate(0) translate(4 225)">
<title>top</title>
<polygon fill="#ffffff" stroke="transparent" points="-4,4 -4,-225 533.3036,-225 533.3036,4 -4,4"/>
<text text-anchor="middle" x="264.6518" y="-7.8" font-family="Times,serif" font-size="14.00" fill="#000000">top</text>
<!-- n1 -->
<g id="node1" class="node">
<title>n1</title>
<polygon fill="none" stroke="#000000" points="80.2975,-87.5442 80.2975,-102.4558 56.7498,-113 23.4484,-113 -.0993,-102.4558 -.0993,-87.5442 23.4484,-77 56.7498,-77 80.2975,-87.5442"/>
<text text-anchor="middle" x="40.0991" y="-91.3" font-family="Times,serif" font-size="14.00" fill="#000000">BTN_1</text>
</g>
<!-- c9 -->
<g id="node6" class="node">
<title>c9</title>
<polygon fill="none" stroke="#000000" points="116.1981,-76 116.1981,-168 351.1981,-168 351.1981,-76 116.1981,-76"/>
<text text-anchor="middle" x="130.1981" y="-152.8" font-family="Times,serif" font-size="14.00" fill="#000000">I0</text>
<polyline fill="none" stroke="#000000" points="116.1981,-145 144.1981,-145 "/>
<text text-anchor="middle" x="130.1981" y="-129.8" font-family="Times,serif" font-size="14.00" fill="#000000">I1</text>
<polyline fill="none" stroke="#000000" points="116.1981,-122 144.1981,-122 "/>
<text text-anchor="middle" x="130.1981" y="-106.8" font-family="Times,serif" font-size="14.00" fill="#000000">I2</text>
<polyline fill="none" stroke="#000000" points="116.1981,-99 144.1981,-99 "/>
<text text-anchor="middle" x="130.1981" y="-83.8" font-family="Times,serif" font-size="14.00" fill="#000000">I3</text>
<polyline fill="none" stroke="#000000" points="144.1981,-76 144.1981,-168 "/>
<text text-anchor="middle" x="234.6981" y="-125.8" font-family="Times,serif" font-size="14.00" fill="#000000">LED_GREEN2_SB_LUT4_O</text>
<text text-anchor="middle" x="234.6981" y="-110.8" font-family="Times,serif" font-size="14.00" fill="#000000">SB_LUT4</text>
<polyline fill="none" stroke="#000000" points="325.1981,-76 325.1981,-168 "/>
<text text-anchor="middle" x="338.1981" y="-118.3" font-family="Times,serif" font-size="14.00" fill="#000000">O</text>
</g>
<!-- n1&#45;&gt;c9 -->
<g id="edge1" class="edge">
<title>n1:e&#45;&gt;c9:w</title>
<path fill="none" stroke="#000000" d="M80.0991,-95C93.401,-95 97.3107,-103.7927 106.21,-107.9143"/>
<polygon fill="#000000" stroke="#000000" points="105.6938,-111.382 116.1981,-110 107.1247,-104.5298 105.6938,-111.382"/>
</g>
<!-- n2 -->
<g id="node2" class="node">
<title>n2</title>
<polygon fill="none" stroke="#000000" points="80.2975,-33.5442 80.2975,-48.4558 56.7498,-59 23.4484,-59 -.0993,-48.4558 -.0993,-33.5442 23.4484,-23 56.7498,-23 80.2975,-33.5442"/>
<text text-anchor="middle" x="40.0991" y="-37.3" font-family="Times,serif" font-size="14.00" fill="#000000">BTN_3</text>
</g>
<!-- n2&#45;&gt;c9 -->
<g id="edge2" class="edge">
<title>n2:e&#45;&gt;c9:w</title>
<path fill="none" stroke="#000000" d="M80.0991,-41C101.8236,-41 94.2928,-73.1444 106.4179,-83.6918"/>
<polygon fill="#000000" stroke="#000000" points="105.6039,-87.1112 116.1981,-87 107.8469,-80.4803 105.6039,-87.1112"/>
</g>
<!-- n3 -->
<g id="node3" class="node">
<title>n3</title>
<polygon fill="none" stroke="#000000" points="529.3564,-114.5442 529.3564,-129.4558 487.7038,-140 428.798,-140 387.1454,-129.4558 387.1454,-114.5442 428.798,-104 487.7038,-104 529.3564,-114.5442"/>
<text text-anchor="middle" x="458.2509" y="-118.3" font-family="Times,serif" font-size="14.00" fill="#000000">LED_GREEN2</text>
</g>
<!-- v0 -->
<g id="node4" class="node">
<title>v0</title>
<ellipse fill="none" stroke="#000000" cx="40.0991" cy="-203" rx="27" ry="18"/>
<text text-anchor="middle" x="40.0991" y="-199.3" font-family="Times,serif" font-size="14.00" fill="#000000">1&#39;0</text>
</g>
<!-- v0&#45;&gt;c9 -->
<g id="edge4" class="edge">
<title>v0:e&#45;&gt;c9:w</title>
<path fill="none" stroke="#000000" d="M67.0991,-203C93.0303,-203 88.423,-168.4073 106.2425,-159.2187"/>
<polygon fill="#000000" stroke="#000000" points="107.1989,-162.5915 116.1981,-157 105.6762,-155.7591 107.1989,-162.5915"/>
</g>
<!-- v1 -->
<g id="node5" class="node">
<title>v1</title>
<ellipse fill="none" stroke="#000000" cx="40.0991" cy="-149" rx="27" ry="18"/>
<text text-anchor="middle" x="40.0991" y="-145.3" font-family="Times,serif" font-size="14.00" fill="#000000">1&#39;0</text>
</g>
<!-- v1&#45;&gt;c9 -->
<g id="edge5" class="edge">
<title>v1:e&#45;&gt;c9:w</title>
<path fill="none" stroke="#000000" d="M67.0991,-149C85.9948,-149 91.6182,-138.7131 105.9515,-135.177"/>
<polygon fill="#000000" stroke="#000000" points="106.6629,-138.6184 116.1981,-134 105.864,-131.6641 106.6629,-138.6184"/>
</g>
<!-- c9&#45;&gt;n3 -->
<g id="edge3" class="edge">
<title>c9:e&#45;&gt;n3:w</title>
<path fill="none" stroke="#000000" d="M351.1981,-122C363.2157,-122 368.4734,-122 377.1111,-122"/>
<polygon fill="#000000" stroke="#000000" points="377.2509,-125.5001 387.2509,-122 377.2509,-118.5001 377.2509,-125.5001"/>
</g>
</g>
</svg>
