<?xml version="1.0" encoding="UTF-8" standalone="no"?>
<!DOCTYPE svg PUBLIC "-//W3C//DTD SVG 1.1//EN"
 "http://www.w3.org/Graphics/SVG/1.1/DTD/svg11.dtd">
<!-- Generated by graphviz version 2.40.1 (20161225.0304)
 -->
<!-- Title: top Pages: 1 -->
<svg width="724pt" height="215pt"
 viewBox="0.00 0.00 724.23 214.50" xmlns="http://www.w3.org/2000/svg" xmlns:xlink="http://www.w3.org/1999/xlink">
<g id="graph0" class="graph" transform="scale(1 1) rotate(0) translate(4 210.5)">
<title>top</title>
<polygon fill="#ffffff" stroke="transparent" points="-4,4 -4,-210.5 720.2273,-210.5 720.2273,4 -4,4"/>
<text text-anchor="middle" x="358.1136" y="-7.8" font-family="Times,serif" font-size="14.00" fill="#000000">top</text>
<!-- n2 -->
<g id="node1" class="node">
<title>n2</title>
<polygon fill="none" stroke="#000000" points="108.5073,-152.5442 108.5073,-167.4558 76.6766,-178 31.6612,-178 -.1695,-167.4558 -.1695,-152.5442 31.6612,-142 76.6766,-142 108.5073,-152.5442"/>
<text text-anchor="middle" x="54.1689" y="-156.3" font-family="Times,serif" font-size="14.00" fill="#000000">BTN_USR</text>
</g>
<!-- c14 -->
<g id="node8" class="node">
<title>c14</title>
<polygon fill="none" stroke="#000000" points="144.3378,-86.5 144.3378,-155.5 266.3378,-155.5 266.3378,-86.5 144.3378,-86.5"/>
<text text-anchor="middle" x="169.8378" y="-140.3" font-family="Times,serif" font-size="14.00" fill="#000000">ARST</text>
<polyline fill="none" stroke="#000000" points="144.3378,-132.5 195.3378,-132.5 "/>
<text text-anchor="middle" x="169.8378" y="-117.3" font-family="Times,serif" font-size="14.00" fill="#000000">CLK</text>
<polyline fill="none" stroke="#000000" points="144.3378,-109.5 195.3378,-109.5 "/>
<text text-anchor="middle" x="169.8378" y="-94.3" font-family="Times,serif" font-size="14.00" fill="#000000">D</text>
<polyline fill="none" stroke="#000000" points="195.3378,-86.5 195.3378,-155.5 "/>
<text text-anchor="middle" x="217.8378" y="-124.8" font-family="Times,serif" font-size="14.00" fill="#000000">$4</text>
<text text-anchor="middle" x="217.8378" y="-109.8" font-family="Times,serif" font-size="14.00" fill="#000000">$adff</text>
<polyline fill="none" stroke="#000000" points="240.3378,-86.5 240.3378,-155.5 "/>
<text text-anchor="middle" x="253.3378" y="-117.3" font-family="Times,serif" font-size="14.00" fill="#000000">Q</text>
</g>
<!-- n2&#45;&gt;c14 -->
<g id="edge2" class="edge">
<title>n2:e&#45;&gt;c14:w</title>
<path fill="none" stroke="#000000" d="M108.1689,-160C121.7642,-160 125.4506,-150.4287 134.556,-146.0917"/>
<polygon fill="#000000" stroke="#000000" points="135.2908,-149.5138 144.3378,-144 133.827,-142.6685 135.2908,-149.5138"/>
</g>
<!-- n3 -->
<g id="node2" class="node">
<title>n3</title>
<polygon fill="none" stroke="#000000" points="85.0763,-98.5442 85.0763,-113.4558 66.9712,-124 41.3667,-124 23.2615,-113.4558 23.2615,-98.5442 41.3667,-88 66.9712,-88 85.0763,-98.5442"/>
<text text-anchor="middle" x="54.1689" y="-102.3" font-family="Times,serif" font-size="14.00" fill="#000000">CLK</text>
</g>
<!-- n3&#45;&gt;c14 -->
<g id="edge3" class="edge">
<title>n3:e&#45;&gt;c14:w</title>
<path fill="none" stroke="#000000" d="M85.1689,-106C108.589,-106 115.4506,-117.1788 134.343,-120.2355"/>
<polygon fill="#000000" stroke="#000000" points="134.1,-123.7271 144.3378,-121 134.6339,-116.7475 134.1,-123.7271"/>
</g>
<!-- n4 -->
<g id="node3" class="node">
<title>n4</title>
<polygon fill="none" stroke="#000000" points="716.28,-125.5442 716.28,-140.4558 674.6274,-151 615.7216,-151 574.069,-140.4558 574.069,-125.5442 615.7216,-115 674.6274,-115 716.28,-125.5442"/>
<text text-anchor="middle" x="645.1745" y="-129.3" font-family="Times,serif" font-size="14.00" fill="#000000">LED_GREEN4</text>
</g>
<!-- n5 -->
<g id="node4" class="node">
<title>n5</title>
<polygon fill="none" stroke="#000000" points="716.28,-180.5442 716.28,-195.4558 674.6274,-206 615.7216,-206 574.069,-195.4558 574.069,-180.5442 615.7216,-170 674.6274,-170 716.28,-180.5442"/>
<text text-anchor="middle" x="645.1745" y="-184.3" font-family="Times,serif" font-size="14.00" fill="#000000">LED_GREEN5</text>
</g>
<!-- n6 -->
<g id="node5" class="node">
<title>n6</title>
<polygon fill="none" stroke="#000000" points="354.7298,-151 302.4457,-133 354.7298,-115 407.014,-133 354.7298,-151"/>
<text text-anchor="middle" x="354.7298" y="-129.3" font-family="Times,serif" font-size="14.00" fill="#000000">counter</text>
</g>
<!-- c10 -->
<g id="node7" class="node">
<title>c10</title>
<polygon fill="none" stroke="#000000" points="443.1218,-50 443.1218,-96 538.1218,-96 538.1218,-50 443.1218,-50"/>
<text text-anchor="middle" x="456.1218" y="-80.8" font-family="Times,serif" font-size="14.00" fill="#000000">A</text>
<polyline fill="none" stroke="#000000" points="443.1218,-73 469.1218,-73 "/>
<text text-anchor="middle" x="456.1218" y="-57.8" font-family="Times,serif" font-size="14.00" fill="#000000">B</text>
<polyline fill="none" stroke="#000000" points="469.1218,-50 469.1218,-96 "/>
<text text-anchor="middle" x="490.6218" y="-76.8" font-family="Times,serif" font-size="14.00" fill="#000000">$3</text>
<text text-anchor="middle" x="490.6218" y="-61.8" font-family="Times,serif" font-size="14.00" fill="#000000">$add</text>
<polyline fill="none" stroke="#000000" points="512.1218,-50 512.1218,-96 "/>
<text text-anchor="middle" x="525.1218" y="-69.3" font-family="Times,serif" font-size="14.00" fill="#000000">Y</text>
</g>
<!-- n6&#45;&gt;c10 -->
<g id="edge7" class="edge">
<title>n6:e&#45;&gt;c10:w</title>
<path fill="none" stroke="#000000" d="M406.7298,-133C429.3183,-133 420.6376,-98.8281 433.4545,-88.1494"/>
<polygon fill="#000000" stroke="#000000" points="434.6978,-91.4255 443.1218,-85 432.5294,-84.7698 434.6978,-91.4255"/>
</g>
<!-- x1 -->
<g id="node9" class="node">
<title>x1</title>
<path fill="none" stroke="#000000" d="M471.1218,-115C471.1218,-115 510.1218,-115 510.1218,-115 516.1218,-115 522.1218,-121 522.1218,-127 522.1218,-127 522.1218,-139 522.1218,-139 522.1218,-145 516.1218,-151 510.1218,-151 510.1218,-151 471.1218,-151 471.1218,-151 465.1218,-151 459.1218,-145 459.1218,-139 459.1218,-139 459.1218,-127 459.1218,-127 459.1218,-121 465.1218,-115 471.1218,-115"/>
<text text-anchor="middle" x="490.6218" y="-129.3" font-family="Times,serif" font-size="14.00" fill="#000000">2:2 &#45; 0:0</text>
</g>
<!-- n6&#45;&gt;x1 -->
<g id="edge8" class="edge">
<title>n6:e&#45;&gt;x1:w</title>
<path fill="none" stroke="#000000" d="M406.7298,-133C426.0091,-133 433.2012,-133 448.5144,-133"/>
<polygon fill="#000000" stroke="#000000" points="448.6218,-136.5001 458.6218,-133 448.6217,-129.5001 448.6218,-136.5001"/>
</g>
<!-- x2 -->
<g id="node10" class="node">
<title>x2</title>
<path fill="none" stroke="#000000" d="M471.1218,-170C471.1218,-170 510.1218,-170 510.1218,-170 516.1218,-170 522.1218,-176 522.1218,-182 522.1218,-182 522.1218,-194 522.1218,-194 522.1218,-200 516.1218,-206 510.1218,-206 510.1218,-206 471.1218,-206 471.1218,-206 465.1218,-206 459.1218,-200 459.1218,-194 459.1218,-194 459.1218,-182 459.1218,-182 459.1218,-176 465.1218,-170 471.1218,-170"/>
<text text-anchor="middle" x="490.6218" y="-184.3" font-family="Times,serif" font-size="14.00" fill="#000000">4:4 &#45; 0:0</text>
</g>
<!-- n6&#45;&gt;x2 -->
<g id="edge9" class="edge">
<title>n6:e&#45;&gt;x2:w</title>
<path fill="none" stroke="#000000" d="M406.7298,-133C436.3986,-133 427.9339,-175.8647 448.6651,-185.9111"/>
<polygon fill="#000000" stroke="#000000" points="448.1162,-189.3721 458.6218,-188 449.5535,-182.5212 448.1162,-189.3721"/>
</g>
<!-- v0 -->
<g id="node6" class="node">
<title>v0</title>
<ellipse fill="none" stroke="#000000" cx="354.7298" cy="-41" rx="27" ry="18"/>
<text text-anchor="middle" x="354.7298" y="-37.3" font-family="Times,serif" font-size="14.00" fill="#000000">1</text>
</g>
<!-- v0&#45;&gt;c10 -->
<g id="edge10" class="edge">
<title>v0:e&#45;&gt;c10:w</title>
<path fill="none" stroke="#000000" stroke-width="3" d="M381.7298,-41C406.7273,-41 412.9838,-56.1761 433.1496,-60.0887"/>
<polygon fill="#000000" stroke="#000000" stroke-width="3" points="432.8447,-63.5753 443.1218,-61 433.4818,-56.6044 432.8447,-63.5753"/>
</g>
<!-- c10&#45;&gt;c14 -->
<g id="edge1" class="edge">
<title>c10:e&#45;&gt;c14:w</title>
<path fill="none" stroke="#000000" stroke-width="3" d="M538.6218,-73C538.6218,-73 443.1218,-96.5 443.1218,-96.5 364.4473,-94.1656 345.0123,-88.3344 266.3378,-86 266.3378,-86 183.4588,-94.152 154.3216,-97.018"/>
<polygon fill="#000000" stroke="#000000" stroke-width="3" points="153.9472,-93.5378 144.3378,-98 154.6325,-100.5042 153.9472,-93.5378"/>
</g>
<!-- c14&#45;&gt;n6 -->
<g id="edge6" class="edge">
<title>c14:e&#45;&gt;n6:w</title>
<path fill="none" stroke="#000000" d="M266.3378,-121C279.3771,-121 283.7991,-128.0342 292.7991,-131.3315"/>
<polygon fill="#000000" stroke="#000000" points="292.2881,-134.7946 302.7298,-133 293.448,-127.8913 292.2881,-134.7946"/>
</g>
<!-- x1&#45;&gt;n4 -->
<g id="edge4" class="edge">
<title>x1:e&#45;&gt;n4:w</title>
<path fill="none" stroke="#000000" d="M522.6218,-133C541.775,-133 548.9201,-133 564.1332,-133"/>
<polygon fill="#000000" stroke="#000000" points="564.1746,-136.5001 574.1745,-133 564.1745,-129.5001 564.1746,-136.5001"/>
</g>
<!-- x2&#45;&gt;n5 -->
<g id="edge5" class="edge">
<title>x2:e&#45;&gt;n5:w</title>
<path fill="none" stroke="#000000" d="M522.6218,-188C541.775,-188 548.9201,-188 564.1332,-188"/>
<polygon fill="#000000" stroke="#000000" points="564.1746,-191.5001 574.1745,-188 564.1745,-184.5001 564.1746,-191.5001"/>
</g>
</g>
</svg>
