<?xml version="1.0" encoding="UTF-8" standalone="no"?>
<!DOCTYPE svg PUBLIC "-//W3C//DTD SVG 1.1//EN"
 "http://www.w3.org/Graphics/SVG/1.1/DTD/svg11.dtd">
<!-- Generated by graphviz version 2.40.1 (20161225.0304)
 -->
<!-- Title: top Pages: 1 -->
<svg width="4526pt" height="1292pt"
 viewBox="0.00 0.00 4526.44 1292.39" xmlns="http://www.w3.org/2000/svg" xmlns:xlink="http://www.w3.org/1999/xlink">
<g id="graph0" class="graph" transform="scale(1 1) rotate(0) translate(4 1288.3877)">
<title>top</title>
<polygon fill="#ffffff" stroke="transparent" points="-4,4 -4,-1288.3877 4522.4428,-1288.3877 4522.4428,4 -4,4"/>
<text text-anchor="middle" x="2259.2214" y="-7.8" font-family="Times,serif" font-size="14.00" fill="#000000">top</text>
<!-- n1 -->
<g id="node1" class="node">
<title>n1</title>
<polygon fill="none" stroke="#000000" points="108.5073,-215.0442 108.5073,-229.9558 76.6766,-240.5 31.6612,-240.5 -.1695,-229.9558 -.1695,-215.0442 31.6612,-204.5 76.6766,-204.5 108.5073,-215.0442"/>
<text text-anchor="middle" x="54.1689" y="-218.8" font-family="Times,serif" font-size="14.00" fill="#000000">BTN_USR</text>
</g>
<!-- c14 -->
<g id="node12" class="node">
<title>c14</title>
<polygon fill="none" stroke="#000000" points="144.3378,-257.5 144.3378,-349.5 356.3378,-349.5 356.3378,-257.5 144.3378,-257.5"/>
<text text-anchor="middle" x="158.3378" y="-334.3" font-family="Times,serif" font-size="14.00" fill="#000000">I0</text>
<polyline fill="none" stroke="#000000" points="144.3378,-326.5 172.3378,-326.5 "/>
<text text-anchor="middle" x="158.3378" y="-311.3" font-family="Times,serif" font-size="14.00" fill="#000000">I1</text>
<polyline fill="none" stroke="#000000" points="144.3378,-303.5 172.3378,-303.5 "/>
<text text-anchor="middle" x="158.3378" y="-288.3" font-family="Times,serif" font-size="14.00" fill="#000000">I2</text>
<polyline fill="none" stroke="#000000" points="144.3378,-280.5 172.3378,-280.5 "/>
<text text-anchor="middle" x="158.3378" y="-265.3" font-family="Times,serif" font-size="14.00" fill="#000000">I3</text>
<polyline fill="none" stroke="#000000" points="172.3378,-257.5 172.3378,-349.5 "/>
<text text-anchor="middle" x="251.3378" y="-307.3" font-family="Times,serif" font-size="14.00" fill="#000000">BTN_USR_SB_LUT4_I3</text>
<text text-anchor="middle" x="251.3378" y="-292.3" font-family="Times,serif" font-size="14.00" fill="#000000">SB_LUT4</text>
<polyline fill="none" stroke="#000000" points="330.3378,-257.5 330.3378,-349.5 "/>
<text text-anchor="middle" x="343.3378" y="-299.8" font-family="Times,serif" font-size="14.00" fill="#000000">O</text>
</g>
<!-- n1&#45;&gt;c14 -->
<g id="edge31" class="edge">
<title>n1:e&#45;&gt;c14:w</title>
<path fill="none" stroke="#000000" d="M108.1689,-222.5C129.9095,-222.5 122.4033,-254.6444 134.5473,-265.1918"/>
<polygon fill="#000000" stroke="#000000" points="133.7436,-268.6146 144.3378,-268.5 135.9845,-261.9829 133.7436,-268.6146"/>
</g>
<!-- n2 -->
<g id="node2" class="node">
<title>n2</title>
<polygon fill="none" stroke="#000000" points="552.2712,-321.5 392.4045,-303.5 552.2712,-285.5 712.138,-303.5 552.2712,-321.5"/>
<text text-anchor="middle" x="552.2712" y="-299.8" font-family="Times,serif" font-size="14.00" fill="#000000">BTN_USR_SB_LUT4_I3_O</text>
</g>
<!-- c24 -->
<g id="node27" class="node">
<title>c24</title>
<polygon fill="none" stroke="#000000" points="748.2046,-642 748.2046,-711 982.2046,-711 982.2046,-642 748.2046,-642"/>
<text text-anchor="middle" x="761.2046" y="-695.8" font-family="Times,serif" font-size="14.00" fill="#000000">C</text>
<polyline fill="none" stroke="#000000" points="748.2046,-688 774.2046,-688 "/>
<text text-anchor="middle" x="761.2046" y="-672.8" font-family="Times,serif" font-size="14.00" fill="#000000">D</text>
<polyline fill="none" stroke="#000000" points="748.2046,-665 774.2046,-665 "/>
<text text-anchor="middle" x="761.2046" y="-649.8" font-family="Times,serif" font-size="14.00" fill="#000000">R</text>
<polyline fill="none" stroke="#000000" points="774.2046,-642 774.2046,-711 "/>
<text text-anchor="middle" x="865.2046" y="-680.3" font-family="Times,serif" font-size="14.00" fill="#000000">LED_GREEN4_SB_DFFR_Q</text>
<text text-anchor="middle" x="865.2046" y="-665.3" font-family="Times,serif" font-size="14.00" fill="#000000">SB_DFFR</text>
<polyline fill="none" stroke="#000000" points="956.2046,-642 956.2046,-711 "/>
<text text-anchor="middle" x="969.2046" y="-672.8" font-family="Times,serif" font-size="14.00" fill="#000000">Q</text>
</g>
<!-- n2&#45;&gt;c24 -->
<g id="edge33" class="edge">
<title>n2:e&#45;&gt;c24:w</title>
<path fill="none" stroke="#000000" d="M712.2046,-303.5C786.5749,-303.5 681.2985,-620.1548 738.1252,-651.0781"/>
<polygon fill="#000000" stroke="#000000" points="737.6636,-654.5667 748.2046,-653.5 739.2991,-647.7604 737.6636,-654.5667"/>
</g>
<!-- c25 -->
<g id="node29" class="node">
<title>c25</title>
<polygon fill="none" stroke="#000000" points="3115.4022,-205 3115.4022,-274 3349.4022,-274 3349.4022,-205 3115.4022,-205"/>
<text text-anchor="middle" x="3128.4022" y="-258.8" font-family="Times,serif" font-size="14.00" fill="#000000">C</text>
<polyline fill="none" stroke="#000000" points="3115.4022,-251 3141.4022,-251 "/>
<text text-anchor="middle" x="3128.4022" y="-235.8" font-family="Times,serif" font-size="14.00" fill="#000000">D</text>
<polyline fill="none" stroke="#000000" points="3115.4022,-228 3141.4022,-228 "/>
<text text-anchor="middle" x="3128.4022" y="-212.8" font-family="Times,serif" font-size="14.00" fill="#000000">R</text>
<polyline fill="none" stroke="#000000" points="3141.4022,-205 3141.4022,-274 "/>
<text text-anchor="middle" x="3232.4022" y="-243.3" font-family="Times,serif" font-size="14.00" fill="#000000">LED_GREEN5_SB_DFFR_Q</text>
<text text-anchor="middle" x="3232.4022" y="-228.3" font-family="Times,serif" font-size="14.00" fill="#000000">SB_DFFR</text>
<polyline fill="none" stroke="#000000" points="3323.4022,-205 3323.4022,-274 "/>
<text text-anchor="middle" x="3336.4022" y="-235.8" font-family="Times,serif" font-size="14.00" fill="#000000">Q</text>
</g>
<!-- n2&#45;&gt;c25 -->
<g id="edge34" class="edge">
<title>n2:e&#45;&gt;c25:w</title>
<path fill="none" stroke="#000000" d="M712.2046,-303.5C755.2859,-303.5 714.1141,-239.8408 748.2046,-213.5 869.0995,-120.0878 936.4783,-170.5 1089.2573,-170.5 1089.2573,-170.5 1089.2573,-170.5 2797.4899,-170.5 2923.0685,-170.5 2961.6712,-145.8032 3079.4022,-189.5 3094.1972,-194.9913 3095.6057,-208.6274 3105.3674,-214.1358"/>
<polygon fill="#000000" stroke="#000000" points="3104.866,-217.6134 3115.4022,-216.5 3106.4713,-210.7999 3104.866,-217.6134"/>
</g>
<!-- c31 -->
<g id="node59" class="node">
<title>c31</title>
<polygon fill="none" stroke="#000000" points="3137.9022,-481 3137.9022,-550 3326.9022,-550 3326.9022,-481 3137.9022,-481"/>
<text text-anchor="middle" x="3150.9022" y="-534.8" font-family="Times,serif" font-size="14.00" fill="#000000">C</text>
<polyline fill="none" stroke="#000000" points="3137.9022,-527 3163.9022,-527 "/>
<text text-anchor="middle" x="3150.9022" y="-511.8" font-family="Times,serif" font-size="14.00" fill="#000000">D</text>
<polyline fill="none" stroke="#000000" points="3137.9022,-504 3163.9022,-504 "/>
<text text-anchor="middle" x="3150.9022" y="-488.8" font-family="Times,serif" font-size="14.00" fill="#000000">R</text>
<polyline fill="none" stroke="#000000" points="3163.9022,-481 3163.9022,-550 "/>
<text text-anchor="middle" x="3232.4022" y="-519.3" font-family="Times,serif" font-size="14.00" fill="#000000">counter_SB_DFFR_Q</text>
<text text-anchor="middle" x="3232.4022" y="-504.3" font-family="Times,serif" font-size="14.00" fill="#000000">SB_DFFR</text>
<polyline fill="none" stroke="#000000" points="3300.9022,-481 3300.9022,-550 "/>
<text text-anchor="middle" x="3313.9022" y="-511.8" font-family="Times,serif" font-size="14.00" fill="#000000">Q</text>
</g>
<!-- n2&#45;&gt;c31 -->
<g id="edge35" class="edge">
<title>n2:e&#45;&gt;c31:w</title>
<path fill="none" stroke="#000000" d="M712.2046,-303.5C729.3719,-303.5 731.4256,-293.1308 748.2046,-289.5 1086.0717,-216.3898 1179.1234,-246.5 1524.8101,-246.5 1524.8101,-246.5 1524.8101,-246.5 2066.0776,-246.5 2185.2297,-246.5 2975.3048,-480.6349 3127.2168,-492.0673"/>
<polygon fill="#000000" stroke="#000000" points="3127.2626,-495.5723 3137.4022,-492.5 3127.5598,-488.5786 3127.2626,-495.5723"/>
</g>
<!-- c32 -->
<g id="node62" class="node">
<title>c32</title>
<polygon fill="none" stroke="#000000" points="3130.9022,-627 3130.9022,-696 3333.9022,-696 3333.9022,-627 3130.9022,-627"/>
<text text-anchor="middle" x="3143.9022" y="-680.8" font-family="Times,serif" font-size="14.00" fill="#000000">C</text>
<polyline fill="none" stroke="#000000" points="3130.9022,-673 3156.9022,-673 "/>
<text text-anchor="middle" x="3143.9022" y="-657.8" font-family="Times,serif" font-size="14.00" fill="#000000">D</text>
<polyline fill="none" stroke="#000000" points="3130.9022,-650 3156.9022,-650 "/>
<text text-anchor="middle" x="3143.9022" y="-634.8" font-family="Times,serif" font-size="14.00" fill="#000000">R</text>
<polyline fill="none" stroke="#000000" points="3156.9022,-627 3156.9022,-696 "/>
<text text-anchor="middle" x="3232.4022" y="-665.3" font-family="Times,serif" font-size="14.00" fill="#000000">counter_SB_DFFR_Q_1</text>
<text text-anchor="middle" x="3232.4022" y="-650.3" font-family="Times,serif" font-size="14.00" fill="#000000">SB_DFFR</text>
<polyline fill="none" stroke="#000000" points="3307.9022,-627 3307.9022,-696 "/>
<text text-anchor="middle" x="3320.9022" y="-657.8" font-family="Times,serif" font-size="14.00" fill="#000000">Q</text>
</g>
<!-- n2&#45;&gt;c32 -->
<g id="edge36" class="edge">
<title>n2:e&#45;&gt;c32:w</title>
<path fill="none" stroke="#000000" d="M712.2046,-303.5C1046.9519,-303.5 1132.5324,-332.4123 1457.3101,-413.5 1721.6069,-479.4874 1766.1585,-573.0416 2034.5776,-619.5 2062.1674,-624.2753 2069.5833,-620.069 2097.5776,-619.5 2283.4705,-615.7214 2329.6846,-606.2786 2515.5776,-602.5 2766.1145,-597.4075 2840.555,-526.6928 3079.4022,-602.5 3102.1282,-609.713 3102.9684,-631.1156 3120.3641,-636.9924"/>
<polygon fill="#000000" stroke="#000000" points="3119.9932,-640.4759 3130.4022,-638.5 3121.0329,-633.5535 3119.9932,-640.4759"/>
</g>
<!-- c33 -->
<g id="node65" class="node">
<title>c33</title>
<polygon fill="none" stroke="#000000" points="3130.9022,-1099 3130.9022,-1168 3333.9022,-1168 3333.9022,-1099 3130.9022,-1099"/>
<text text-anchor="middle" x="3143.9022" y="-1152.8" font-family="Times,serif" font-size="14.00" fill="#000000">C</text>
<polyline fill="none" stroke="#000000" points="3130.9022,-1145 3156.9022,-1145 "/>
<text text-anchor="middle" x="3143.9022" y="-1129.8" font-family="Times,serif" font-size="14.00" fill="#000000">D</text>
<polyline fill="none" stroke="#000000" points="3130.9022,-1122 3156.9022,-1122 "/>
<text text-anchor="middle" x="3143.9022" y="-1106.8" font-family="Times,serif" font-size="14.00" fill="#000000">R</text>
<polyline fill="none" stroke="#000000" points="3156.9022,-1099 3156.9022,-1168 "/>
<text text-anchor="middle" x="3232.4022" y="-1137.3" font-family="Times,serif" font-size="14.00" fill="#000000">counter_SB_DFFR_Q_2</text>
<text text-anchor="middle" x="3232.4022" y="-1122.3" font-family="Times,serif" font-size="14.00" fill="#000000">SB_DFFR</text>
<polyline fill="none" stroke="#000000" points="3307.9022,-1099 3307.9022,-1168 "/>
<text text-anchor="middle" x="3320.9022" y="-1129.8" font-family="Times,serif" font-size="14.00" fill="#000000">Q</text>
</g>
<!-- n2&#45;&gt;c33 -->
<g id="edge37" class="edge">
<title>n2:e&#45;&gt;c33:w</title>
<path fill="none" stroke="#000000" d="M712.2046,-303.5C758.7102,-303.5 728.9681,-678.1593 748.2046,-720.5 838.5726,-919.406 870.7854,-1074.5 1089.2573,-1074.5 1089.2573,-1074.5 1089.2573,-1074.5 2547.0776,-1074.5 2757.199,-1074.5 2806.6642,-1118.8102 3016.4022,-1131.5 3044.351,-1133.191 3051.9345,-1136.9338 3079.4022,-1131.5 3099.6918,-1127.4862 3104.5991,-1115.2955 3120.3617,-1111.5839"/>
<polygon fill="#000000" stroke="#000000" points="3120.8356,-1115.0532 3130.4022,-1110.5 3120.0842,-1108.0936 3120.8356,-1115.0532"/>
</g>
<!-- n3 -->
<g id="node3" class="node">
<title>n3</title>
<polygon fill="none" stroke="#000000" points="583.1786,-692.0442 583.1786,-706.9558 565.0735,-717.5 539.4689,-717.5 521.3638,-706.9558 521.3638,-692.0442 539.4689,-681.5 565.0735,-681.5 583.1786,-692.0442"/>
<text text-anchor="middle" x="552.2712" y="-695.8" font-family="Times,serif" font-size="14.00" fill="#000000">CLK</text>
</g>
<!-- n3&#45;&gt;c24 -->
<g id="edge38" class="edge">
<title>n3:e&#45;&gt;c24:w</title>
<path fill="none" stroke="#000000" d="M583.2712,-699.5C652.9956,-699.5 672.9801,-699.5 737.8472,-699.5"/>
<polygon fill="#000000" stroke="#000000" points="738.2046,-703.0001 748.2046,-699.5 738.2045,-696.0001 738.2046,-703.0001"/>
</g>
<!-- n3&#45;&gt;c25 -->
<g id="edge39" class="edge">
<title>n3:e&#45;&gt;c25:w</title>
<path fill="none" stroke="#000000" d="M583.2712,-699.5C679.9999,-699.5 666.5907,-609.4194 748.2046,-557.5 1067.4834,-354.3879 1146.4009,-208.5 1524.8101,-208.5 1524.8101,-208.5 1524.8101,-208.5 2547.0776,-208.5 2797.335,-208.5 2859.9753,-261.0335 3105.1026,-262.47"/>
<polygon fill="#000000" stroke="#000000" points="3105.392,-265.9708 3115.4022,-262.5 3105.4124,-258.9708 3105.392,-265.9708"/>
</g>
<!-- n3&#45;&gt;c31 -->
<g id="edge40" class="edge">
<title>n3:e&#45;&gt;c31:w</title>
<path fill="none" stroke="#000000" d="M583.2712,-699.5C662.3923,-699.5 672.3457,-654.9851 748.2046,-632.5 1332.8295,-459.2131 1489.4586,-339.7125 2097.5776,-384.5 2560.0883,-418.5636 2668.6345,-536.7514 3127.1946,-538.4808"/>
<polygon fill="#000000" stroke="#000000" points="3127.3956,-541.9811 3137.4022,-538.5 3127.4088,-534.9811 3127.3956,-541.9811"/>
</g>
<!-- n3&#45;&gt;c32 -->
<g id="edge41" class="edge">
<title>n3:e&#45;&gt;c32:w</title>
<path fill="none" stroke="#000000" d="M583.2712,-699.5C771.0583,-699.5 595.3705,-979.3865 748.2046,-1088.5 871.8751,-1176.7926 937.3035,-1112.5 1089.2573,-1112.5 1089.2573,-1112.5 1089.2573,-1112.5 2547.0776,-1112.5 2829.009,-1112.5 2882.4588,-969.239 3079.4022,-767.5 3106.9295,-739.3023 3090.7301,-693.6773 3120.2407,-685.7067"/>
<polygon fill="#000000" stroke="#000000" points="3120.8847,-689.1549 3130.4022,-684.5 3120.0592,-682.2037 3120.8847,-689.1549"/>
</g>
<!-- n3&#45;&gt;c33 -->
<g id="edge42" class="edge">
<title>n3:e&#45;&gt;c33:w</title>
<path fill="none" stroke="#000000" d="M583.2712,-699.5C786.2996,-699.5 591.8826,-995.9469 748.2046,-1125.5 866.8874,-1223.8594 935.1139,-1188.5 1089.2573,-1188.5 1089.2573,-1188.5 1089.2573,-1188.5 2797.4899,-1188.5 2923.2374,-1188.5 2954.5628,-1179.5862 3079.4022,-1164.5 3098.4432,-1162.199 3105.2554,-1158.1546 3120.3807,-1156.8895"/>
<polygon fill="#000000" stroke="#000000" points="3120.5457,-1160.3859 3130.4022,-1156.5 3120.2737,-1153.3911 3120.5457,-1160.3859"/>
</g>
<!-- n4 -->
<g id="node4" class="node">
<title>n4</title>
<polygon fill="none" stroke="#000000" points="1160.3628,-759.0442 1160.3628,-773.9558 1118.7102,-784.5 1059.8044,-784.5 1018.1518,-773.9558 1018.1518,-759.0442 1059.8044,-748.5 1118.7102,-748.5 1160.3628,-759.0442"/>
<text text-anchor="middle" x="1089.2573" y="-762.8" font-family="Times,serif" font-size="14.00" fill="#000000">LED_GREEN4</text>
</g>
<!-- c17 -->
<g id="node14" class="node">
<title>c17</title>
<polygon fill="none" stroke="#000000" points="1196.3101,-821 1196.3101,-890 1457.3101,-890 1457.3101,-821 1196.3101,-821"/>
<text text-anchor="middle" x="1211.3101" y="-874.8" font-family="Times,serif" font-size="14.00" fill="#000000">CI</text>
<polyline fill="none" stroke="#000000" points="1196.3101,-867 1226.3101,-867 "/>
<text text-anchor="middle" x="1211.3101" y="-851.8" font-family="Times,serif" font-size="14.00" fill="#000000">I0</text>
<polyline fill="none" stroke="#000000" points="1196.3101,-844 1226.3101,-844 "/>
<text text-anchor="middle" x="1211.3101" y="-828.8" font-family="Times,serif" font-size="14.00" fill="#000000">I1</text>
<polyline fill="none" stroke="#000000" points="1226.3101,-821 1226.3101,-890 "/>
<text text-anchor="middle" x="1324.3101" y="-859.3" font-family="Times,serif" font-size="14.00" fill="#000000">LED_GREEN4_SB_CARRY_I1</text>
<text text-anchor="middle" x="1324.3101" y="-844.3" font-family="Times,serif" font-size="14.00" fill="#000000">SB_CARRY</text>
<polyline fill="none" stroke="#000000" points="1422.3101,-821 1422.3101,-890 "/>
<text text-anchor="middle" x="1439.8101" y="-851.8" font-family="Times,serif" font-size="14.00" fill="#000000">CO</text>
</g>
<!-- n4&#45;&gt;c17 -->
<g id="edge44" class="edge">
<title>n4:e&#45;&gt;c17:w</title>
<path fill="none" stroke="#000000" d="M1160.2573,-766.5C1189.5037,-766.5 1169.5812,-817.0313 1186.5354,-829.6641"/>
<polygon fill="#000000" stroke="#000000" points="1185.7308,-833.0749 1196.3101,-832.5 1187.6814,-826.3521 1185.7308,-833.0749"/>
</g>
<!-- c28 -->
<g id="node44" class="node">
<title>c28</title>
<polygon fill="none" stroke="#000000" points="2133.5776,-791.5 2133.5776,-883.5 2479.5776,-883.5 2479.5776,-791.5 2133.5776,-791.5"/>
<text text-anchor="middle" x="2147.5776" y="-868.3" font-family="Times,serif" font-size="14.00" fill="#000000">I0</text>
<polyline fill="none" stroke="#000000" points="2133.5776,-860.5 2161.5776,-860.5 "/>
<text text-anchor="middle" x="2147.5776" y="-845.3" font-family="Times,serif" font-size="14.00" fill="#000000">I1</text>
<polyline fill="none" stroke="#000000" points="2133.5776,-837.5 2161.5776,-837.5 "/>
<text text-anchor="middle" x="2147.5776" y="-822.3" font-family="Times,serif" font-size="14.00" fill="#000000">I2</text>
<polyline fill="none" stroke="#000000" points="2133.5776,-814.5 2161.5776,-814.5 "/>
<text text-anchor="middle" x="2147.5776" y="-799.3" font-family="Times,serif" font-size="14.00" fill="#000000">I3</text>
<polyline fill="none" stroke="#000000" points="2161.5776,-791.5 2161.5776,-883.5 "/>
<text text-anchor="middle" x="2307.5776" y="-841.3" font-family="Times,serif" font-size="14.00" fill="#000000">LED_GREEN5_SB_LUT4_I2_O_SB_LUT4_O_1</text>
<text text-anchor="middle" x="2307.5776" y="-826.3" font-family="Times,serif" font-size="14.00" fill="#000000">SB_LUT4</text>
<polyline fill="none" stroke="#000000" points="2453.5776,-791.5 2453.5776,-883.5 "/>
<text text-anchor="middle" x="2466.5776" y="-833.8" font-family="Times,serif" font-size="14.00" fill="#000000">O</text>
</g>
<!-- n4&#45;&gt;c28 -->
<g id="edge45" class="edge">
<title>n4:e&#45;&gt;c28:w</title>
<path fill="none" stroke="#000000" d="M1160.2573,-766.5C1590.2523,-766.5 1698.5118,-824.5817 2123.4797,-825.4893"/>
<polygon fill="#000000" stroke="#000000" points="2123.5738,-828.9893 2133.5776,-825.5 2123.5813,-821.9893 2123.5738,-828.9893"/>
</g>
<!-- x47 -->
<g id="node70" class="node">
<title>x47</title>
<path fill="none" stroke="#000000" d="M3575.5076,-413.5C3575.5076,-413.5 3614.5076,-413.5 3614.5076,-413.5 3620.5076,-413.5 3626.5076,-419.5 3626.5076,-425.5 3626.5076,-425.5 3626.5076,-447.5 3626.5076,-447.5 3626.5076,-453.5 3620.5076,-459.5 3614.5076,-459.5 3614.5076,-459.5 3575.5076,-459.5 3575.5076,-459.5 3569.5076,-459.5 3563.5076,-453.5 3563.5076,-447.5 3563.5076,-447.5 3563.5076,-425.5 3563.5076,-425.5 3563.5076,-419.5 3569.5076,-413.5 3575.5076,-413.5"/>
<text text-anchor="middle" x="3595.0076" y="-444.3" font-family="Times,serif" font-size="14.00" fill="#000000">0:0 &#45; 1:1</text>
<polyline fill="none" stroke="#000000" points="3563.5076,-436.5 3626.5076,-436.5 "/>
<text text-anchor="middle" x="3595.0076" y="-421.3" font-family="Times,serif" font-size="14.00" fill="#000000">0:0 &#45; 0:0</text>
</g>
<!-- n4&#45;&gt;x47 -->
<g id="edge46" class="edge">
<title>n4:e&#45;&gt;x47:w</title>
<path fill="none" stroke="#000000" d="M1160.2573,-766.5C1290.4965,-766.5 1474.1536,-425.2842 1592.3101,-370.5 1737.0176,-303.4052 2857.2153,-199.5757 3016.4022,-189.5 3119.7894,-182.9561 3305.9641,-176.07 3349.4022,-195.5 3378.8395,-208.6674 3507.4207,-393.7238 3553.9837,-421.1206"/>
<polygon fill="#000000" stroke="#000000" points="3552.9129,-424.4544 3563.5076,-424.5 3555.2538,-417.8573 3552.9129,-424.4544"/>
</g>
<!-- n5 -->
<g id="node5" class="node">
<title>n5</title>
<polygon fill="none" stroke="#000000" points="1795.4438,-741.5 1592.1762,-723.5 1795.4438,-705.5 1998.7114,-723.5 1795.4438,-741.5"/>
<text text-anchor="middle" x="1795.4438" y="-719.8" font-family="Times,serif" font-size="14.00" fill="#000000">LED_GREEN4_SB_CARRY_I1_CO</text>
</g>
<!-- x3 -->
<g id="node15" class="node">
<title>x3</title>
<path fill="none" stroke="#000000" d="M2046.5776,-760.5C2046.5776,-760.5 2085.5776,-760.5 2085.5776,-760.5 2091.5776,-760.5 2097.5776,-766.5 2097.5776,-772.5 2097.5776,-772.5 2097.5776,-784.5 2097.5776,-784.5 2097.5776,-790.5 2091.5776,-796.5 2085.5776,-796.5 2085.5776,-796.5 2046.5776,-796.5 2046.5776,-796.5 2040.5776,-796.5 2034.5776,-790.5 2034.5776,-784.5 2034.5776,-784.5 2034.5776,-772.5 2034.5776,-772.5 2034.5776,-766.5 2040.5776,-760.5 2046.5776,-760.5"/>
<text text-anchor="middle" x="2066.0776" y="-774.8" font-family="Times,serif" font-size="14.00" fill="#000000">2:2 &#45; 0:0</text>
</g>
<!-- n5&#45;&gt;x3 -->
<g id="edge54" class="edge">
<title>n5:e&#45;&gt;x3:w</title>
<path fill="none" stroke="#000000" stroke-width="3" d="M1998.4438,-723.5C2023.5787,-723.5 2010.5984,-764.1189 2025.0134,-775.543"/>
<polygon fill="#000000" stroke="#000000" stroke-width="3" points="2023.9899,-778.8899 2034.5776,-778.5 2026.0576,-772.2023 2023.9899,-778.8899"/>
</g>
<!-- x6 -->
<g id="node19" class="node">
<title>x6</title>
<path fill="none" stroke="#000000" d="M2777.9899,-280.5C2777.9899,-280.5 2816.9899,-280.5 2816.9899,-280.5 2822.9899,-280.5 2828.9899,-286.5 2828.9899,-292.5 2828.9899,-292.5 2828.9899,-304.5 2828.9899,-304.5 2828.9899,-310.5 2822.9899,-316.5 2816.9899,-316.5 2816.9899,-316.5 2777.9899,-316.5 2777.9899,-316.5 2771.9899,-316.5 2765.9899,-310.5 2765.9899,-304.5 2765.9899,-304.5 2765.9899,-292.5 2765.9899,-292.5 2765.9899,-286.5 2771.9899,-280.5 2777.9899,-280.5"/>
<text text-anchor="middle" x="2797.4899" y="-294.8" font-family="Times,serif" font-size="14.00" fill="#000000">3:3 &#45; 0:0</text>
</g>
<!-- n5&#45;&gt;x6 -->
<g id="edge55" class="edge">
<title>n5:e&#45;&gt;x6:w</title>
<path fill="none" stroke="#000000" stroke-width="3" d="M1998.4438,-723.5C2074.2039,-723.5 1981.3008,-438.3625 2034.5776,-384.5 2090.1171,-328.3498 2643.8974,-300.44 2755.3597,-298.5977"/>
<polygon fill="#000000" stroke="#000000" stroke-width="3" points="2755.5241,-302.0964 2765.4899,-298.5 2755.4565,-295.0967 2755.5241,-302.0964"/>
</g>
<!-- x18 -->
<g id="node34" class="node">
<title>x18</title>
<path fill="none" stroke="#000000" d="M2046.5776,-465.5C2046.5776,-465.5 2085.5776,-465.5 2085.5776,-465.5 2091.5776,-465.5 2097.5776,-471.5 2097.5776,-477.5 2097.5776,-477.5 2097.5776,-489.5 2097.5776,-489.5 2097.5776,-495.5 2091.5776,-501.5 2085.5776,-501.5 2085.5776,-501.5 2046.5776,-501.5 2046.5776,-501.5 2040.5776,-501.5 2034.5776,-495.5 2034.5776,-489.5 2034.5776,-489.5 2034.5776,-477.5 2034.5776,-477.5 2034.5776,-471.5 2040.5776,-465.5 2046.5776,-465.5"/>
<text text-anchor="middle" x="2066.0776" y="-479.8" font-family="Times,serif" font-size="14.00" fill="#000000">4:4 &#45; 0:0</text>
</g>
<!-- n5&#45;&gt;x18 -->
<g id="edge51" class="edge">
<title>n5:e&#45;&gt;x18:w</title>
<path fill="none" stroke="#000000" stroke-width="3" d="M1998.4438,-723.5C2102.6257,-723.5 1938.6505,-499.6259 2024.5014,-484.322"/>
<polygon fill="#000000" stroke="#000000" stroke-width="3" points="2024.8953,-487.8016 2034.5776,-483.5 2024.3261,-480.8247 2024.8953,-487.8016"/>
</g>
<!-- x23 -->
<g id="node40" class="node">
<title>x23</title>
<path fill="none" stroke="#000000" d="M3794.3996,-1186.5C3794.3996,-1186.5 3833.3996,-1186.5 3833.3996,-1186.5 3839.3996,-1186.5 3845.3996,-1192.5 3845.3996,-1198.5 3845.3996,-1198.5 3845.3996,-1210.5 3845.3996,-1210.5 3845.3996,-1216.5 3839.3996,-1222.5 3833.3996,-1222.5 3833.3996,-1222.5 3794.3996,-1222.5 3794.3996,-1222.5 3788.3996,-1222.5 3782.3996,-1216.5 3782.3996,-1210.5 3782.3996,-1210.5 3782.3996,-1198.5 3782.3996,-1198.5 3782.3996,-1192.5 3788.3996,-1186.5 3794.3996,-1186.5"/>
<text text-anchor="middle" x="3813.8996" y="-1200.8" font-family="Times,serif" font-size="14.00" fill="#000000">3:3 &#45; 0:0</text>
</g>
<!-- n5&#45;&gt;x23 -->
<g id="edge52" class="edge">
<title>n5:e&#45;&gt;x23:w</title>
<path fill="none" stroke="#000000" stroke-width="3" d="M1998.4438,-723.5C2063.1661,-723.5 1992.3476,-963.4531 2034.5776,-1012.5 2264.3544,-1279.3682 2445.3308,-1226.5 2797.4899,-1226.5 2797.4899,-1226.5 2797.4899,-1226.5 3595.0076,-1226.5 3675.0505,-1226.5 3696.4588,-1206.35 3771.4628,-1204.6184"/>
<polygon fill="#000000" stroke="#000000" stroke-width="3" points="3771.94,-1208.1133 3781.8996,-1204.5 3771.8605,-1201.1137 3771.94,-1208.1133"/>
</g>
<!-- x27 -->
<g id="node45" class="node">
<title>x27</title>
<path fill="none" stroke="#000000" d="M2046.5776,-705.5C2046.5776,-705.5 2085.5776,-705.5 2085.5776,-705.5 2091.5776,-705.5 2097.5776,-711.5 2097.5776,-717.5 2097.5776,-717.5 2097.5776,-729.5 2097.5776,-729.5 2097.5776,-735.5 2091.5776,-741.5 2085.5776,-741.5 2085.5776,-741.5 2046.5776,-741.5 2046.5776,-741.5 2040.5776,-741.5 2034.5776,-735.5 2034.5776,-729.5 2034.5776,-729.5 2034.5776,-717.5 2034.5776,-717.5 2034.5776,-711.5 2040.5776,-705.5 2046.5776,-705.5"/>
<text text-anchor="middle" x="2066.0776" y="-719.8" font-family="Times,serif" font-size="14.00" fill="#000000">2:2 &#45; 0:0</text>
</g>
<!-- n5&#45;&gt;x27 -->
<g id="edge53" class="edge">
<title>n5:e&#45;&gt;x27:w</title>
<path fill="none" stroke="#000000" stroke-width="3" d="M1998.4438,-723.5C2010.4884,-723.5 2015.7579,-723.5 2024.4149,-723.5"/>
<polygon fill="#000000" stroke="#000000" stroke-width="3" points="2024.5776,-727.0001 2034.5776,-723.5 2024.5775,-720.0001 2024.5776,-727.0001"/>
</g>
<!-- n6 -->
<g id="node6" class="node">
<title>n6</title>
<polygon fill="none" stroke="#000000" points="3527.5604,-423.0442 3527.5604,-437.9558 3485.9078,-448.5 3427.002,-448.5 3385.3494,-437.9558 3385.3494,-423.0442 3427.002,-412.5 3485.9078,-412.5 3527.5604,-423.0442"/>
<text text-anchor="middle" x="3456.4549" y="-426.8" font-family="Times,serif" font-size="14.00" fill="#000000">LED_GREEN5</text>
</g>
<!-- c26 -->
<g id="node33" class="node">
<title>c26</title>
<polygon fill="none" stroke="#000000" points="2188.5776,-480.5 2188.5776,-572.5 2424.5776,-572.5 2424.5776,-480.5 2188.5776,-480.5"/>
<text text-anchor="middle" x="2202.5776" y="-557.3" font-family="Times,serif" font-size="14.00" fill="#000000">I0</text>
<polyline fill="none" stroke="#000000" points="2188.5776,-549.5 2216.5776,-549.5 "/>
<text text-anchor="middle" x="2202.5776" y="-534.3" font-family="Times,serif" font-size="14.00" fill="#000000">I1</text>
<polyline fill="none" stroke="#000000" points="2188.5776,-526.5 2216.5776,-526.5 "/>
<text text-anchor="middle" x="2202.5776" y="-511.3" font-family="Times,serif" font-size="14.00" fill="#000000">I2</text>
<polyline fill="none" stroke="#000000" points="2188.5776,-503.5 2216.5776,-503.5 "/>
<text text-anchor="middle" x="2202.5776" y="-488.3" font-family="Times,serif" font-size="14.00" fill="#000000">I3</text>
<polyline fill="none" stroke="#000000" points="2216.5776,-480.5 2216.5776,-572.5 "/>
<text text-anchor="middle" x="2307.5776" y="-530.3" font-family="Times,serif" font-size="14.00" fill="#000000">LED_GREEN5_SB_LUT4_I2</text>
<text text-anchor="middle" x="2307.5776" y="-515.3" font-family="Times,serif" font-size="14.00" fill="#000000">SB_LUT4</text>
<polyline fill="none" stroke="#000000" points="2398.5776,-480.5 2398.5776,-572.5 "/>
<text text-anchor="middle" x="2411.5776" y="-522.8" font-family="Times,serif" font-size="14.00" fill="#000000">O</text>
</g>
<!-- n6&#45;&gt;c26 -->
<g id="edge57" class="edge">
<title>n6:e&#45;&gt;c26:w</title>
<path fill="none" stroke="#000000" d="M3527.4549,-430.5C3535.4549,-430.5 3533.0448,-442.777 3527.4549,-448.5 3475.4667,-501.7257 2240.5658,-426.7743 2188.5776,-480 2181.0443,-487.7126 2176.5241,-501.6356 2179.8343,-509.2227"/>
<polygon fill="#000000" stroke="#000000" points="2178.2075,-512.3289 2188.5776,-514.5 2181.8248,-506.336 2178.2075,-512.3289"/>
</g>
<!-- n6&#45;&gt;x47 -->
<g id="edge58" class="edge">
<title>n6:e&#45;&gt;x47:w</title>
<path fill="none" stroke="#000000" d="M3527.4549,-430.5C3541.3068,-430.5 3544.5849,-441.2677 3553.6456,-446.1468"/>
<polygon fill="#000000" stroke="#000000" points="3552.9684,-449.5834 3563.5076,-448.5 3554.5931,-442.7746 3552.9684,-449.5834"/>
</g>
<!-- n7 -->
<g id="node7" class="node">
<title>n7</title>
<polygon fill="none" stroke="#000000" points="2797.4899,-780.5 2614.6652,-762.5 2797.4899,-744.5 2980.3145,-762.5 2797.4899,-780.5"/>
<text text-anchor="middle" x="2797.4899" y="-758.8" font-family="Times,serif" font-size="14.00" fill="#000000">LED_GREEN5_SB_LUT4_I2_O</text>
</g>
<!-- x14 -->
<g id="node28" class="node">
<title>x14</title>
<path fill="none" stroke="#000000" d="M3028.4022,-611.5C3028.4022,-611.5 3067.4022,-611.5 3067.4022,-611.5 3073.4022,-611.5 3079.4022,-617.5 3079.4022,-623.5 3079.4022,-623.5 3079.4022,-635.5 3079.4022,-635.5 3079.4022,-641.5 3073.4022,-647.5 3067.4022,-647.5 3067.4022,-647.5 3028.4022,-647.5 3028.4022,-647.5 3022.4022,-647.5 3016.4022,-641.5 3016.4022,-635.5 3016.4022,-635.5 3016.4022,-623.5 3016.4022,-623.5 3016.4022,-617.5 3022.4022,-611.5 3028.4022,-611.5"/>
<text text-anchor="middle" x="3047.9022" y="-625.8" font-family="Times,serif" font-size="14.00" fill="#000000">2:2 &#45; 0:0</text>
</g>
<!-- n7&#45;&gt;x14 -->
<g id="edge64" class="edge">
<title>n7:e&#45;&gt;x14:w</title>
<path fill="none" stroke="#000000" d="M2980.4022,-762.5C3037.5738,-762.5 2965.9977,-646.5776 3006.07,-631.1816"/>
<polygon fill="#000000" stroke="#000000" points="3007.0943,-634.561 3016.4022,-629.5 3005.9698,-627.652 3007.0943,-634.561"/>
</g>
<!-- x15 -->
<g id="node30" class="node">
<title>x15</title>
<path fill="none" stroke="#000000" d="M3028.4022,-199.5C3028.4022,-199.5 3067.4022,-199.5 3067.4022,-199.5 3073.4022,-199.5 3079.4022,-205.5 3079.4022,-211.5 3079.4022,-211.5 3079.4022,-223.5 3079.4022,-223.5 3079.4022,-229.5 3073.4022,-235.5 3067.4022,-235.5 3067.4022,-235.5 3028.4022,-235.5 3028.4022,-235.5 3022.4022,-235.5 3016.4022,-229.5 3016.4022,-223.5 3016.4022,-223.5 3016.4022,-211.5 3016.4022,-211.5 3016.4022,-205.5 3022.4022,-199.5 3028.4022,-199.5"/>
<text text-anchor="middle" x="3047.9022" y="-213.8" font-family="Times,serif" font-size="14.00" fill="#000000">4:4 &#45; 0:0</text>
</g>
<!-- n7&#45;&gt;x15 -->
<g id="edge65" class="edge">
<title>n7:e&#45;&gt;x15:w</title>
<path fill="none" stroke="#000000" d="M2980.4022,-762.5C3037.6523,-762.5 2964.9174,-277.4898 3007.4427,-222.5473"/>
<polygon fill="#000000" stroke="#000000" points="3009.4074,-225.4577 3016.4022,-217.5 3005.9716,-219.3589 3009.4074,-225.4577"/>
</g>
<!-- x39 -->
<g id="node60" class="node">
<title>x39</title>
<path fill="none" stroke="#000000" d="M3028.4022,-666.5C3028.4022,-666.5 3067.4022,-666.5 3067.4022,-666.5 3073.4022,-666.5 3079.4022,-672.5 3079.4022,-678.5 3079.4022,-678.5 3079.4022,-690.5 3079.4022,-690.5 3079.4022,-696.5 3073.4022,-702.5 3067.4022,-702.5 3067.4022,-702.5 3028.4022,-702.5 3028.4022,-702.5 3022.4022,-702.5 3016.4022,-696.5 3016.4022,-690.5 3016.4022,-690.5 3016.4022,-678.5 3016.4022,-678.5 3016.4022,-672.5 3022.4022,-666.5 3028.4022,-666.5"/>
<text text-anchor="middle" x="3047.9022" y="-680.8" font-family="Times,serif" font-size="14.00" fill="#000000">3:3 &#45; 0:0</text>
</g>
<!-- n7&#45;&gt;x39 -->
<g id="edge66" class="edge">
<title>n7:e&#45;&gt;x39:w</title>
<path fill="none" stroke="#000000" d="M2980.4022,-762.5C3014.407,-762.5 2986.1108,-700.6294 3006.4873,-687.0952"/>
<polygon fill="#000000" stroke="#000000" points="3007.6144,-690.4182 3016.4022,-684.5 3005.8418,-683.6463 3007.6144,-690.4182"/>
</g>
<!-- x41 -->
<g id="node63" class="node">
<title>x41</title>
<path fill="none" stroke="#000000" d="M3028.4022,-721.5C3028.4022,-721.5 3067.4022,-721.5 3067.4022,-721.5 3073.4022,-721.5 3079.4022,-727.5 3079.4022,-733.5 3079.4022,-733.5 3079.4022,-745.5 3079.4022,-745.5 3079.4022,-751.5 3073.4022,-757.5 3067.4022,-757.5 3067.4022,-757.5 3028.4022,-757.5 3028.4022,-757.5 3022.4022,-757.5 3016.4022,-751.5 3016.4022,-745.5 3016.4022,-745.5 3016.4022,-733.5 3016.4022,-733.5 3016.4022,-727.5 3022.4022,-721.5 3028.4022,-721.5"/>
<text text-anchor="middle" x="3047.9022" y="-735.8" font-family="Times,serif" font-size="14.00" fill="#000000">1:1 &#45; 0:0</text>
</g>
<!-- n7&#45;&gt;x41 -->
<g id="edge67" class="edge">
<title>n7:e&#45;&gt;x41:w</title>
<path fill="none" stroke="#000000" d="M2980.4022,-762.5C2995.2355,-762.5 2997.2759,-748.4619 3006.5123,-742.3203"/>
<polygon fill="#000000" stroke="#000000" points="3007.7454,-745.6082 3016.4022,-739.5 3005.8257,-738.8766 3007.7454,-745.6082"/>
</g>
<!-- x43 -->
<g id="node66" class="node">
<title>x43</title>
<path fill="none" stroke="#000000" d="M3028.4022,-1085.5C3028.4022,-1085.5 3067.4022,-1085.5 3067.4022,-1085.5 3073.4022,-1085.5 3079.4022,-1091.5 3079.4022,-1097.5 3079.4022,-1097.5 3079.4022,-1109.5 3079.4022,-1109.5 3079.4022,-1115.5 3073.4022,-1121.5 3067.4022,-1121.5 3067.4022,-1121.5 3028.4022,-1121.5 3028.4022,-1121.5 3022.4022,-1121.5 3016.4022,-1115.5 3016.4022,-1109.5 3016.4022,-1109.5 3016.4022,-1097.5 3016.4022,-1097.5 3016.4022,-1091.5 3022.4022,-1085.5 3028.4022,-1085.5"/>
<text text-anchor="middle" x="3047.9022" y="-1099.8" font-family="Times,serif" font-size="14.00" fill="#000000">0:0 &#45; 0:0</text>
</g>
<!-- n7&#45;&gt;x43 -->
<g id="edge68" class="edge">
<title>n7:e&#45;&gt;x43:w</title>
<path fill="none" stroke="#000000" d="M2980.4022,-762.5C3052.8804,-762.5 2951.111,-1071.0122 3006.5729,-1101.1404"/>
<polygon fill="#000000" stroke="#000000" points="3005.8614,-1104.5689 3016.4022,-1103.5 3007.4954,-1097.7623 3005.8614,-1104.5689"/>
</g>
<!-- n8 -->
<g id="node8" class="node">
<title>n8</title>
<polygon fill="none" stroke="#000000" points="3813.8996,-592.5 3761.6155,-574.5 3813.8996,-556.5 3866.1838,-574.5 3813.8996,-592.5"/>
<text text-anchor="middle" x="3813.8996" y="-570.8" font-family="Times,serif" font-size="14.00" fill="#000000">counter</text>
</g>
<!-- x9 -->
<g id="node21" class="node">
<title>x9</title>
<path fill="none" stroke="#000000" d="M3914.2916,-23.5C3914.2916,-23.5 3953.2916,-23.5 3953.2916,-23.5 3959.2916,-23.5 3965.2916,-29.5 3965.2916,-35.5 3965.2916,-35.5 3965.2916,-47.5 3965.2916,-47.5 3965.2916,-53.5 3959.2916,-59.5 3953.2916,-59.5 3953.2916,-59.5 3914.2916,-59.5 3914.2916,-59.5 3908.2916,-59.5 3902.2916,-53.5 3902.2916,-47.5 3902.2916,-47.5 3902.2916,-35.5 3902.2916,-35.5 3902.2916,-29.5 3908.2916,-23.5 3914.2916,-23.5"/>
<text text-anchor="middle" x="3933.7916" y="-37.8" font-family="Times,serif" font-size="14.00" fill="#000000">3:3 &#45; 0:0</text>
</g>
<!-- n8&#45;&gt;x9 -->
<g id="edge81" class="edge">
<title>n8:e&#45;&gt;x9:w</title>
<path fill="none" stroke="#000000" d="M3865.8996,-574.5C3921.8975,-574.5 3851.8032,-100.169 3893.5172,-46.4361"/>
<polygon fill="#000000" stroke="#000000" points="3895.2921,-49.4535 3902.2916,-41.5 3891.86,-43.3526 3895.2921,-49.4535"/>
</g>
<!-- x10 -->
<g id="node24" class="node">
<title>x10</title>
<path fill="none" stroke="#000000" d="M3914.2916,-319.5C3914.2916,-319.5 3953.2916,-319.5 3953.2916,-319.5 3959.2916,-319.5 3965.2916,-325.5 3965.2916,-331.5 3965.2916,-331.5 3965.2916,-343.5 3965.2916,-343.5 3965.2916,-349.5 3959.2916,-355.5 3953.2916,-355.5 3953.2916,-355.5 3914.2916,-355.5 3914.2916,-355.5 3908.2916,-355.5 3902.2916,-349.5 3902.2916,-343.5 3902.2916,-343.5 3902.2916,-331.5 3902.2916,-331.5 3902.2916,-325.5 3908.2916,-319.5 3914.2916,-319.5"/>
<text text-anchor="middle" x="3933.7916" y="-333.8" font-family="Times,serif" font-size="14.00" fill="#000000">0:0 &#45; 0:0</text>
</g>
<!-- n8&#45;&gt;x10 -->
<g id="edge74" class="edge">
<title>n8:e&#45;&gt;x10:w</title>
<path fill="none" stroke="#000000" d="M3865.8996,-574.5C3968.721,-574.5 3807.8008,-353.8711 3892.0779,-338.3582"/>
<polygon fill="#000000" stroke="#000000" points="3892.6198,-341.8251 3902.2916,-337.5 3892.0336,-334.8496 3892.6198,-341.8251"/>
</g>
<!-- x13 -->
<g id="node26" class="node">
<title>x13</title>
<path fill="none" stroke="#000000" d="M3914.2916,-209.5C3914.2916,-209.5 3953.2916,-209.5 3953.2916,-209.5 3959.2916,-209.5 3965.2916,-215.5 3965.2916,-221.5 3965.2916,-221.5 3965.2916,-233.5 3965.2916,-233.5 3965.2916,-239.5 3959.2916,-245.5 3953.2916,-245.5 3953.2916,-245.5 3914.2916,-245.5 3914.2916,-245.5 3908.2916,-245.5 3902.2916,-239.5 3902.2916,-233.5 3902.2916,-233.5 3902.2916,-221.5 3902.2916,-221.5 3902.2916,-215.5 3908.2916,-209.5 3914.2916,-209.5"/>
<text text-anchor="middle" x="3933.7916" y="-223.8" font-family="Times,serif" font-size="14.00" fill="#000000">1:1 &#45; 0:0</text>
</g>
<!-- n8&#45;&gt;x13 -->
<g id="edge75" class="edge">
<title>n8:e&#45;&gt;x13:w</title>
<path fill="none" stroke="#000000" d="M3865.8996,-574.5C3939.6478,-574.5 3835.8792,-260.5594 3892.2918,-229.9011"/>
<polygon fill="#000000" stroke="#000000" points="3893.3852,-233.2382 3902.2916,-227.5 3891.7507,-226.4316 3893.3852,-233.2382"/>
</g>
<!-- x22 -->
<g id="node39" class="node">
<title>x22</title>
<path fill="none" stroke="#000000" d="M3914.2916,-953.5C3914.2916,-953.5 3953.2916,-953.5 3953.2916,-953.5 3959.2916,-953.5 3965.2916,-959.5 3965.2916,-965.5 3965.2916,-965.5 3965.2916,-977.5 3965.2916,-977.5 3965.2916,-983.5 3959.2916,-989.5 3953.2916,-989.5 3953.2916,-989.5 3914.2916,-989.5 3914.2916,-989.5 3908.2916,-989.5 3902.2916,-983.5 3902.2916,-977.5 3902.2916,-977.5 3902.2916,-965.5 3902.2916,-965.5 3902.2916,-959.5 3908.2916,-953.5 3914.2916,-953.5"/>
<text text-anchor="middle" x="3933.7916" y="-967.8" font-family="Times,serif" font-size="14.00" fill="#000000">3:3 &#45; 0:0</text>
</g>
<!-- n8&#45;&gt;x22 -->
<g id="edge76" class="edge">
<title>n8:e&#45;&gt;x22:w</title>
<path fill="none" stroke="#000000" d="M3865.8996,-574.5C3950.685,-574.5 3825.3753,-938.1158 3892.1056,-969.364"/>
<polygon fill="#000000" stroke="#000000" points="3891.7861,-972.8731 3902.2916,-971.5 3893.2228,-966.0221 3891.7861,-972.8731"/>
</g>
<!-- x31 -->
<g id="node50" class="node">
<title>x31</title>
<path fill="none" stroke="#000000" d="M3914.2916,-724.5C3914.2916,-724.5 3953.2916,-724.5 3953.2916,-724.5 3959.2916,-724.5 3965.2916,-730.5 3965.2916,-736.5 3965.2916,-736.5 3965.2916,-748.5 3965.2916,-748.5 3965.2916,-754.5 3959.2916,-760.5 3953.2916,-760.5 3953.2916,-760.5 3914.2916,-760.5 3914.2916,-760.5 3908.2916,-760.5 3902.2916,-754.5 3902.2916,-748.5 3902.2916,-748.5 3902.2916,-736.5 3902.2916,-736.5 3902.2916,-730.5 3908.2916,-724.5 3914.2916,-724.5"/>
<text text-anchor="middle" x="3933.7916" y="-738.8" font-family="Times,serif" font-size="14.00" fill="#000000">1:1 &#45; 0:0</text>
</g>
<!-- n8&#45;&gt;x31 -->
<g id="edge77" class="edge">
<title>n8:e&#45;&gt;x31:w</title>
<path fill="none" stroke="#000000" d="M3865.8996,-574.5C3938.4184,-574.5 3837.2183,-725.8707 3892.0938,-741.2443"/>
<polygon fill="#000000" stroke="#000000" points="3891.9388,-744.7516 3902.2916,-742.5 3892.7943,-737.804 3891.9388,-744.7516"/>
</g>
<!-- x32 -->
<g id="node51" class="node">
<title>x32</title>
<path fill="none" stroke="#000000" d="M3914.2916,-669.5C3914.2916,-669.5 3953.2916,-669.5 3953.2916,-669.5 3959.2916,-669.5 3965.2916,-675.5 3965.2916,-681.5 3965.2916,-681.5 3965.2916,-693.5 3965.2916,-693.5 3965.2916,-699.5 3959.2916,-705.5 3953.2916,-705.5 3953.2916,-705.5 3914.2916,-705.5 3914.2916,-705.5 3908.2916,-705.5 3902.2916,-699.5 3902.2916,-693.5 3902.2916,-693.5 3902.2916,-681.5 3902.2916,-681.5 3902.2916,-675.5 3908.2916,-669.5 3914.2916,-669.5"/>
<text text-anchor="middle" x="3933.7916" y="-683.8" font-family="Times,serif" font-size="14.00" fill="#000000">0:0 &#45; 0:0</text>
</g>
<!-- n8&#45;&gt;x32 -->
<g id="edge78" class="edge">
<title>n8:e&#45;&gt;x32:w</title>
<path fill="none" stroke="#000000" d="M3865.8996,-574.5C3914.54,-574.5 3859.5871,-670.5334 3892.0411,-685.5387"/>
<polygon fill="#000000" stroke="#000000" points="3891.812,-689.0583 3902.2916,-687.5 3893.1275,-682.183 3891.812,-689.0583"/>
</g>
<!-- x37 -->
<g id="node57" class="node">
<title>x37</title>
<path fill="none" stroke="#000000" d="M3914.2916,-413.5C3914.2916,-413.5 3953.2916,-413.5 3953.2916,-413.5 3959.2916,-413.5 3965.2916,-419.5 3965.2916,-425.5 3965.2916,-425.5 3965.2916,-437.5 3965.2916,-437.5 3965.2916,-443.5 3959.2916,-449.5 3953.2916,-449.5 3953.2916,-449.5 3914.2916,-449.5 3914.2916,-449.5 3908.2916,-449.5 3902.2916,-443.5 3902.2916,-437.5 3902.2916,-437.5 3902.2916,-425.5 3902.2916,-425.5 3902.2916,-419.5 3908.2916,-413.5 3914.2916,-413.5"/>
<text text-anchor="middle" x="3933.7916" y="-427.8" font-family="Times,serif" font-size="14.00" fill="#000000">0:0 &#45; 0:0</text>
</g>
<!-- n8&#45;&gt;x37 -->
<g id="edge79" class="edge">
<title>n8:e&#45;&gt;x37:w</title>
<path fill="none" stroke="#000000" d="M3865.8996,-574.5C3927.6383,-574.5 3847.2656,-447.7669 3892.3507,-432.9153"/>
<polygon fill="#000000" stroke="#000000" points="3892.8848,-436.3747 3902.2916,-431.5 3891.898,-429.4445 3892.8848,-436.3747"/>
</g>
<!-- x45 -->
<g id="node68" class="node">
<title>x45</title>
<path fill="none" stroke="#000000" d="M3914.2916,-888.5C3914.2916,-888.5 3953.2916,-888.5 3953.2916,-888.5 3959.2916,-888.5 3965.2916,-894.5 3965.2916,-900.5 3965.2916,-900.5 3965.2916,-922.5 3965.2916,-922.5 3965.2916,-928.5 3959.2916,-934.5 3953.2916,-934.5 3953.2916,-934.5 3914.2916,-934.5 3914.2916,-934.5 3908.2916,-934.5 3902.2916,-928.5 3902.2916,-922.5 3902.2916,-922.5 3902.2916,-900.5 3902.2916,-900.5 3902.2916,-894.5 3908.2916,-888.5 3914.2916,-888.5"/>
<text text-anchor="middle" x="3933.7916" y="-919.3" font-family="Times,serif" font-size="14.00" fill="#000000">0:0 &#45; 1:1</text>
<polyline fill="none" stroke="#000000" points="3902.2916,-911.5 3965.2916,-911.5 "/>
<text text-anchor="middle" x="3933.7916" y="-896.3" font-family="Times,serif" font-size="14.00" fill="#000000">0 &#45;&gt; 0:0</text>
</g>
<!-- n8&#45;&gt;x45 -->
<g id="edge80" class="edge">
<title>n8:e&#45;&gt;x45:w</title>
<path fill="none" stroke="#000000" d="M3865.8996,-574.5C3940.0682,-574.5 3835.5203,-890.25 3892.2362,-921.085"/>
<polygon fill="#000000" stroke="#000000" points="3891.7507,-924.5679 3902.2916,-923.5 3893.3854,-917.7614 3891.7507,-924.5679"/>
</g>
<!-- v0 -->
<g id="node9" class="node">
<title>v0</title>
<ellipse fill="none" stroke="#000000" cx="54.1689" cy="-384.5" rx="27" ry="18"/>
<text text-anchor="middle" x="54.1689" y="-380.8" font-family="Times,serif" font-size="14.00" fill="#000000">1&#39;0</text>
</g>
<!-- v0&#45;&gt;c14 -->
<g id="edge82" class="edge">
<title>v0:e&#45;&gt;c14:w</title>
<path fill="none" stroke="#000000" d="M81.1689,-384.5C112.1005,-384.5 110.4932,-348.0122 134.3069,-340.0305"/>
<polygon fill="#000000" stroke="#000000" points="134.9802,-343.4684 144.3378,-338.5 133.9243,-336.5484 134.9802,-343.4684"/>
</g>
<!-- v1 -->
<g id="node10" class="node">
<title>v1</title>
<ellipse fill="none" stroke="#000000" cx="54.1689" cy="-330.5" rx="27" ry="18"/>
<text text-anchor="middle" x="54.1689" y="-326.8" font-family="Times,serif" font-size="14.00" fill="#000000">1&#39;0</text>
</g>
<!-- v1&#45;&gt;c14 -->
<g id="edge83" class="edge">
<title>v1:e&#45;&gt;c14:w</title>
<path fill="none" stroke="#000000" d="M81.1689,-330.5C106.305,-330.5 113.6863,-319.1179 134.245,-316.1835"/>
<polygon fill="#000000" stroke="#000000" points="134.5972,-319.6678 144.3378,-315.5 134.1242,-312.6837 134.5972,-319.6678"/>
</g>
<!-- v2 -->
<g id="node11" class="node">
<title>v2</title>
<ellipse fill="none" stroke="#000000" cx="54.1689" cy="-276.5" rx="27" ry="18"/>
<text text-anchor="middle" x="54.1689" y="-272.8" font-family="Times,serif" font-size="14.00" fill="#000000">1&#39;0</text>
</g>
<!-- v2&#45;&gt;c14 -->
<g id="edge87" class="edge">
<title>v2:e&#45;&gt;c14:w</title>
<path fill="none" stroke="#000000" d="M81.1689,-276.5C106.305,-276.5 113.6863,-287.8821 134.245,-290.8165"/>
<polygon fill="#000000" stroke="#000000" points="134.1242,-294.3163 144.3378,-291.5 134.5972,-287.3322 134.1242,-294.3163"/>
</g>
<!-- c14&#45;&gt;n2 -->
<g id="edge32" class="edge">
<title>c14:e&#45;&gt;n2:w</title>
<path fill="none" stroke="#000000" d="M356.3378,-303.5C368.3378,-303.5 373.5878,-303.5 382.2128,-303.5"/>
<polygon fill="#000000" stroke="#000000" points="382.3379,-307.0001 392.3378,-303.5 382.3378,-300.0001 382.3379,-307.0001"/>
</g>
<!-- v5 -->
<g id="node13" class="node">
<title>v5</title>
<ellipse fill="none" stroke="#000000" cx="1089.2573" cy="-855.5" rx="27" ry="18"/>
<text text-anchor="middle" x="1089.2573" y="-851.8" font-family="Times,serif" font-size="14.00" fill="#000000">1&#39;0</text>
</g>
<!-- v5&#45;&gt;c17 -->
<g id="edge97" class="edge">
<title>v5:e&#45;&gt;c17:w</title>
<path fill="none" stroke="#000000" d="M1116.2573,-855.5C1148.2228,-855.5 1158.6491,-855.5 1186.2394,-855.5"/>
<polygon fill="#000000" stroke="#000000" points="1186.3101,-859.0001 1196.3101,-855.5 1186.31,-852.0001 1186.3101,-859.0001"/>
</g>
<!-- x4 -->
<g id="node16" class="node">
<title>x4</title>
<path fill="none" stroke="#000000" d="M1505.3101,-732.5C1505.3101,-732.5 1544.3101,-732.5 1544.3101,-732.5 1550.3101,-732.5 1556.3101,-738.5 1556.3101,-744.5 1556.3101,-744.5 1556.3101,-756.5 1556.3101,-756.5 1556.3101,-762.5 1550.3101,-768.5 1544.3101,-768.5 1544.3101,-768.5 1505.3101,-768.5 1505.3101,-768.5 1499.3101,-768.5 1493.3101,-762.5 1493.3101,-756.5 1493.3101,-756.5 1493.3101,-744.5 1493.3101,-744.5 1493.3101,-738.5 1499.3101,-732.5 1505.3101,-732.5"/>
<text text-anchor="middle" x="1524.8101" y="-746.8" font-family="Times,serif" font-size="14.00" fill="#000000">0:0 &#45; 3:3</text>
</g>
<!-- c17&#45;&gt;x4 -->
<g id="edge2" class="edge">
<title>c17:e&#45;&gt;x4:w</title>
<path fill="none" stroke="#000000" d="M1469.1102,-852.4708C1492.1288,-837.2052 1458.5032,-768.8356 1481.4915,-753.5415"/>
<polygon fill="none" stroke="#000000" points="1468.9332,-852.5161 1464.1162,-857.8825 1457.3101,-855.5 1462.127,-850.1337 1468.9332,-852.5161"/>
<polygon fill="none" stroke="#000000" points="1481.6887,-753.4908 1486.5025,-748.1216 1493.3101,-750.5 1488.4963,-755.8692 1481.6887,-753.4908"/>
</g>
<!-- x3&#45;&gt;c17 -->
<g id="edge1" class="edge">
<title>x3:e&#45;&gt;c17:w</title>
<path fill="none" stroke="#000000" d="M2102.1167,-789.9532C2101.1913,-792.5209 2099.7582,-795.0564 2098.0776,-797 2003.9567,-905.8516 1600.8333,-880.0838 1457.3101,-890.5 1457.3101,-890.5 1259.7715,-881.4351 1208.072,-879.0627"/>
<polygon fill="none" stroke="#000000" points="2102.0687,-789.8169 2096.3008,-785.4888 2098.0776,-778.5 2103.8454,-782.8281 2102.0687,-789.8169"/>
<polygon fill="none" stroke="#000000" points="1207.7974,-879.0502 1201.6204,-882.7709 1195.8101,-878.5 1201.9871,-874.7793 1207.7974,-879.0502"/>
</g>
<!-- x4&#45;&gt;n5 -->
<g id="edge49" class="edge">
<title>x4:e&#45;&gt;n5:w</title>
<path fill="none" stroke="#000000" stroke-width="3" d="M1556.3101,-750.5C1572.2855,-750.5 1573.0149,-733.3547 1582.7967,-726.3895"/>
<polygon fill="#000000" stroke="#000000" stroke-width="3" points="1583.8685,-729.7221 1592.4438,-723.5 1581.86,-723.0165 1583.8685,-729.7221"/>
</g>
<!-- v8 -->
<g id="node17" class="node">
<title>v8</title>
<ellipse fill="none" stroke="#000000" cx="3933.7916" cy="-96.5" rx="27" ry="18"/>
<text text-anchor="middle" x="3933.7916" y="-92.8" font-family="Times,serif" font-size="14.00" fill="#000000">1&#39;0</text>
</g>
<!-- c18 -->
<g id="node18" class="node">
<title>c18</title>
<polygon fill="none" stroke="#000000" points="4008.2916,-73 4008.2916,-142 4396.2916,-142 4396.2916,-73 4008.2916,-73"/>
<text text-anchor="middle" x="4023.2916" y="-126.8" font-family="Times,serif" font-size="14.00" fill="#000000">CI</text>
<polyline fill="none" stroke="#000000" points="4008.2916,-119 4038.2916,-119 "/>
<text text-anchor="middle" x="4023.2916" y="-103.8" font-family="Times,serif" font-size="14.00" fill="#000000">I0</text>
<polyline fill="none" stroke="#000000" points="4008.2916,-96 4038.2916,-96 "/>
<text text-anchor="middle" x="4023.2916" y="-80.8" font-family="Times,serif" font-size="14.00" fill="#000000">I1</text>
<polyline fill="none" stroke="#000000" points="4038.2916,-73 4038.2916,-142 "/>
<text text-anchor="middle" x="4199.7916" y="-111.3" font-family="Times,serif" font-size="14.00" fill="#000000">LED_GREEN4_SB_CARRY_I1_CO_SB_CARRY_CO</text>
<text text-anchor="middle" x="4199.7916" y="-96.3" font-family="Times,serif" font-size="14.00" fill="#000000">SB_CARRY</text>
<polyline fill="none" stroke="#000000" points="4361.2916,-73 4361.2916,-142 "/>
<text text-anchor="middle" x="4378.7916" y="-103.8" font-family="Times,serif" font-size="14.00" fill="#000000">CO</text>
</g>
<!-- v8&#45;&gt;c18 -->
<g id="edge98" class="edge">
<title>v8:e&#45;&gt;c18:w</title>
<path fill="none" stroke="#000000" d="M3960.7916,-96.5C3978.5676,-96.5 3984.5613,-103.902 3998.103,-106.5621"/>
<polygon fill="#000000" stroke="#000000" points="3998.0128,-110.0686 4008.2916,-107.5 3998.6545,-103.098 3998.0128,-110.0686"/>
</g>
<!-- x7 -->
<g id="node20" class="node">
<title>x7</title>
<path fill="none" stroke="#000000" d="M4451.2916,-131.5C4451.2916,-131.5 4490.2916,-131.5 4490.2916,-131.5 4496.2916,-131.5 4502.2916,-137.5 4502.2916,-143.5 4502.2916,-143.5 4502.2916,-155.5 4502.2916,-155.5 4502.2916,-161.5 4496.2916,-167.5 4490.2916,-167.5 4490.2916,-167.5 4451.2916,-167.5 4451.2916,-167.5 4445.2916,-167.5 4439.2916,-161.5 4439.2916,-155.5 4439.2916,-155.5 4439.2916,-143.5 4439.2916,-143.5 4439.2916,-137.5 4445.2916,-131.5 4451.2916,-131.5"/>
<text text-anchor="middle" x="4470.7916" y="-145.8" font-family="Times,serif" font-size="14.00" fill="#000000">0:0 &#45; 4:4</text>
</g>
<!-- c18&#45;&gt;x7 -->
<g id="edge4" class="edge">
<title>c18:e&#45;&gt;x7:w</title>
<path fill="none" stroke="#000000" d="M4407.8908,-111.376C4417.5667,-119.4178 4418.0748,-137.8259 4427.8511,-145.7543"/>
<polygon fill="none" stroke="#000000" points="4407.673,-111.3033 4400.7145,-113.1954 4396.2916,-107.5 4403.25,-105.6078 4407.673,-111.3033"/>
<polygon fill="none" stroke="#000000" points="4427.8872,-145.7661 4434.834,-143.8316 4439.2916,-149.5 4432.3448,-151.4345 4427.8872,-145.7661"/>
</g>
<!-- x6&#45;&gt;c18 -->
<g id="edge3" class="edge">
<title>x6:e&#45;&gt;c18:w</title>
<path fill="none" stroke="#000000" d="M2841.5293,-298.5434C3063.0359,-300.1453 3130.8306,-345.169 3349.4022,-283.5 3470.5401,-249.3215 3469.1403,-142.5 3595.0076,-142.5 3595.0076,-142.5 3595.0076,-142.5 3813.8996,-142.5 3896.2339,-142.5 3919.4979,-131.6433 3996.0635,-130.583"/>
<polygon fill="none" stroke="#000000" points="2841.4898,-298.5434 2835.4754,-302.5217 2829.4899,-298.5 2835.5043,-294.5217 2841.4898,-298.5434"/>
<polygon fill="none" stroke="#000000" points="3996.2918,-130.5816 4002.2645,-126.5409 4008.2916,-130.5 4002.3189,-134.5407 3996.2918,-130.5816"/>
</g>
<!-- x7&#45;&gt;n5 -->
<g id="edge50" class="edge">
<title>x7:e&#45;&gt;n5:w</title>
<path fill="none" stroke="#000000" stroke-width="3" d="M4502.7916,-149.5C4511.0138,-149.5 4508.4512,-162.0357 4502.7916,-168 4410.8105,-264.9325 4034.8284,-182.459 3902.2916,-199.5 3653.4424,-231.4959 3597.7057,-277.5136 3349.4022,-313.5 2812.7073,-391.2828 2668.0006,-324.3938 2133.5776,-416.5 2088.7464,-424.2265 2064.4681,-408.2059 2034.5776,-442.5 1946.6325,-543.4015 2098.7201,-652.6916 1998.5776,-741.5 1998.5776,-741.5 1665.0244,-726.7168 1602.4831,-723.9449"/>
<polygon fill="#000000" stroke="#000000" stroke-width="3" points="1602.589,-720.4463 1592.4438,-723.5 1602.279,-727.4394 1602.589,-720.4463"/>
</g>
<!-- x9&#45;&gt;c18 -->
<g id="edge5" class="edge">
<title>x9:e&#45;&gt;c18:w</title>
<path fill="none" stroke="#000000" d="M3976.98,-45.4683C3986.6729,-53.7015 3986.9665,-72.548 3996.7621,-80.6651"/>
<polygon fill="none" stroke="#000000" points="3976.6546,-45.3578 3969.6871,-47.2166 3965.2916,-41.5 3972.259,-39.6413 3976.6546,-45.3578"/>
<polygon fill="none" stroke="#000000" points="3996.9049,-80.7126 4003.8607,-78.8107 4008.2916,-84.5 4001.3358,-86.4018 3996.9049,-80.7126"/>
</g>
<!-- v12 -->
<g id="node22" class="node">
<title>v12</title>
<ellipse fill="none" stroke="#000000" cx="3933.7916" cy="-282.5" rx="27" ry="18"/>
<text text-anchor="middle" x="3933.7916" y="-278.8" font-family="Times,serif" font-size="14.00" fill="#000000">1&#39;0</text>
</g>
<!-- c19 -->
<g id="node23" class="node">
<title>c19</title>
<polygon fill="none" stroke="#000000" points="4001.2916,-264 4001.2916,-333 4403.2916,-333 4403.2916,-264 4001.2916,-264"/>
<text text-anchor="middle" x="4016.2916" y="-317.8" font-family="Times,serif" font-size="14.00" fill="#000000">CI</text>
<polyline fill="none" stroke="#000000" points="4001.2916,-310 4031.2916,-310 "/>
<text text-anchor="middle" x="4016.2916" y="-294.8" font-family="Times,serif" font-size="14.00" fill="#000000">I0</text>
<polyline fill="none" stroke="#000000" points="4001.2916,-287 4031.2916,-287 "/>
<text text-anchor="middle" x="4016.2916" y="-271.8" font-family="Times,serif" font-size="14.00" fill="#000000">I1</text>
<polyline fill="none" stroke="#000000" points="4031.2916,-264 4031.2916,-333 "/>
<text text-anchor="middle" x="4199.7916" y="-302.3" font-family="Times,serif" font-size="14.00" fill="#000000">LED_GREEN4_SB_CARRY_I1_CO_SB_CARRY_CO_1</text>
<text text-anchor="middle" x="4199.7916" y="-287.3" font-family="Times,serif" font-size="14.00" fill="#000000">SB_CARRY</text>
<polyline fill="none" stroke="#000000" points="4368.2916,-264 4368.2916,-333 "/>
<text text-anchor="middle" x="4385.7916" y="-294.8" font-family="Times,serif" font-size="14.00" fill="#000000">CO</text>
</g>
<!-- v12&#45;&gt;c19 -->
<g id="edge84" class="edge">
<title>v12:e&#45;&gt;c19:w</title>
<path fill="none" stroke="#000000" d="M3960.7916,-282.5C3976.2141,-282.5 3980.485,-292.6602 3991.3772,-296.7877"/>
<polygon fill="#000000" stroke="#000000" points="3990.8418,-300.247 4001.2916,-298.5 3992.0331,-293.3491 3990.8418,-300.247"/>
</g>
<!-- x11 -->
<g id="node25" class="node">
<title>x11</title>
<path fill="none" stroke="#000000" d="M4451.2916,-315.5C4451.2916,-315.5 4490.2916,-315.5 4490.2916,-315.5 4496.2916,-315.5 4502.2916,-321.5 4502.2916,-327.5 4502.2916,-327.5 4502.2916,-339.5 4502.2916,-339.5 4502.2916,-345.5 4496.2916,-351.5 4490.2916,-351.5 4490.2916,-351.5 4451.2916,-351.5 4451.2916,-351.5 4445.2916,-351.5 4439.2916,-345.5 4439.2916,-339.5 4439.2916,-339.5 4439.2916,-327.5 4439.2916,-327.5 4439.2916,-321.5 4445.2916,-315.5 4451.2916,-315.5"/>
<text text-anchor="middle" x="4470.7916" y="-329.8" font-family="Times,serif" font-size="14.00" fill="#000000">0:0 &#45; 2:2</text>
</g>
<!-- c19&#45;&gt;x11 -->
<g id="edge7" class="edge">
<title>c19:e&#45;&gt;x11:w</title>
<path fill="none" stroke="#000000" d="M4414.4134,-303.0756C4420.651,-309.7463 4421.8835,-322.0777 4428.0652,-328.8115"/>
<polygon fill="none" stroke="#000000" points="4414.3891,-303.0657 4407.3184,-304.482 4403.2916,-298.5 4410.3622,-297.0837 4414.3891,-303.0657"/>
<polygon fill="none" stroke="#000000" points="4428.2184,-328.8755 4435.2965,-327.4967 4439.2916,-333.5 4432.2135,-334.8788 4428.2184,-328.8755"/>
</g>
<!-- x10&#45;&gt;c19 -->
<g id="edge6" class="edge">
<title>x10:e&#45;&gt;c19:w</title>
<path fill="none" stroke="#000000" d="M3977.1307,-334.2622C3981.6542,-331.4862 3984.9353,-327.5076 3989.4603,-324.733"/>
<polygon fill="none" stroke="#000000" points="3976.8665,-334.3343 3972.1343,-339.7755 3965.2916,-337.5 3970.0238,-332.0589 3976.8665,-334.3343"/>
<polygon fill="none" stroke="#000000" points="3989.716,-324.6632 3994.4494,-319.2231 4001.2916,-321.5 3996.5582,-326.9401 3989.716,-324.6632"/>
</g>
<!-- x11&#45;&gt;n5 -->
<g id="edge47" class="edge">
<title>x11:e&#45;&gt;n5:w</title>
<path fill="none" stroke="#000000" stroke-width="3" d="M4502.7916,-333.5C4511.0138,-333.5 4508.4374,-346.0225 4502.7916,-352 4328.8625,-536.147 4187.0926,-384.5 3933.7916,-384.5 3232.4022,-384.5 3232.4022,-384.5 3232.4022,-384.5 3199.0692,-384.5 2058.908,-433.7158 2034.5776,-456.5 1941.3863,-543.7688 2094.3461,-657.0676 1998.5776,-741.5 1998.5776,-741.5 1665.0244,-726.7168 1602.4831,-723.9449"/>
<polygon fill="#000000" stroke="#000000" stroke-width="3" points="1602.589,-720.4463 1592.4438,-723.5 1602.279,-727.4394 1602.589,-720.4463"/>
</g>
<!-- x13&#45;&gt;c19 -->
<g id="edge8" class="edge">
<title>x13:e&#45;&gt;c19:w</title>
<path fill="none" stroke="#000000" d="M3976.5368,-232.2779C3984.3643,-241.4785 3982.2213,-261.556 3990.0628,-270.7414"/>
<polygon fill="none" stroke="#000000" points="3976.336,-232.1926 3969.2496,-233.5278 3965.2916,-227.5 3972.378,-226.1648 3976.336,-232.1926"/>
<polygon fill="none" stroke="#000000" points="3990.2428,-270.8176 3997.328,-269.4759 4001.2916,-275.5 3994.2064,-276.8418 3990.2428,-270.8176"/>
</g>
<!-- c24&#45;&gt;n4 -->
<g id="edge43" class="edge">
<title>c24:e&#45;&gt;n4:w</title>
<path fill="none" stroke="#000000" d="M982.2046,-676.5C1021.2549,-676.5 983.7469,-750.416 1008.4425,-764.2753"/>
<polygon fill="#000000" stroke="#000000" points="1007.731,-767.7027 1018.2573,-766.5 1009.2785,-760.8759 1007.731,-767.7027"/>
</g>
<!-- x14&#45;&gt;c24 -->
<g id="edge9" class="edge">
<title>x14:e&#45;&gt;c24:w</title>
<path fill="none" stroke="#000000" d="M3084.0648,-641.0651C3083.1357,-643.6293 3081.6698,-646.1352 3079.9022,-648 3069.7053,-658.7569 2561.8994,-676.5 2547.0776,-676.5 1326.8101,-676.5 1326.8101,-676.5 1326.8101,-676.5 1172.8641,-676.5 1135.9534,-703.7123 982.2046,-711.5 982.2046,-711.5 807.815,-685.4161 760.1304,-678.2838"/>
<polygon fill="none" stroke="#000000" points="3083.9662,-640.7909 3078.1705,-636.5001 3079.9022,-629.5 3085.6978,-633.7908 3083.9662,-640.7909"/>
<polygon fill="none" stroke="#000000" points="760.0726,-678.2752 753.5468,-681.3436 748.2046,-676.5 754.7303,-673.4316 760.0726,-678.2752"/>
</g>
<!-- c25&#45;&gt;n6 -->
<g id="edge56" class="edge">
<title>c25:e&#45;&gt;n6:w</title>
<path fill="none" stroke="#000000" d="M3349.4022,-239.5C3431.9094,-239.5 3310.9005,-413.7253 3375.123,-429.3783"/>
<polygon fill="#000000" stroke="#000000" points="3375.1355,-432.9002 3385.4549,-430.5 3375.8911,-425.9411 3375.1355,-432.9002"/>
</g>
<!-- x15&#45;&gt;c25 -->
<g id="edge10" class="edge">
<title>x15:e&#45;&gt;c25:w</title>
<path fill="none" stroke="#000000" d="M3090.8166,-221.3321C3095.7964,-225.2716 3098.7761,-231.3835 3103.6725,-235.4135"/>
<polygon fill="none" stroke="#000000" points="3090.7782,-221.3193 3083.8171,-223.2016 3079.4022,-217.5 3086.3633,-215.6176 3090.7782,-221.3193"/>
<polygon fill="none" stroke="#000000" points="3104.0702,-235.552 3111.0522,-233.7487 3115.4022,-239.5 3108.4202,-241.3033 3104.0702,-235.552"/>
</g>
<!-- v16 -->
<g id="node31" class="node">
<title>v16</title>
<ellipse fill="none" stroke="#000000" cx="2066.0776" cy="-592.5" rx="27" ry="18"/>
<text text-anchor="middle" x="2066.0776" y="-588.8" font-family="Times,serif" font-size="14.00" fill="#000000">1&#39;0</text>
</g>
<!-- v16&#45;&gt;c26 -->
<g id="edge85" class="edge">
<title>v16:e&#45;&gt;c26:w</title>
<path fill="none" stroke="#000000" d="M2093.0776,-592.5C2134.0416,-592.5 2142.6692,-566.3773 2178.328,-562.0916"/>
<polygon fill="#000000" stroke="#000000" points="2178.7959,-565.5705 2188.5776,-561.5 2178.3925,-558.5821 2178.7959,-565.5705"/>
</g>
<!-- v17 -->
<g id="node32" class="node">
<title>v17</title>
<ellipse fill="none" stroke="#000000" cx="2066.0776" cy="-538.5" rx="27" ry="18"/>
<text text-anchor="middle" x="2066.0776" y="-534.8" font-family="Times,serif" font-size="14.00" fill="#000000">1&#39;0</text>
</g>
<!-- v17&#45;&gt;c26 -->
<g id="edge86" class="edge">
<title>v17:e&#45;&gt;c26:w</title>
<path fill="none" stroke="#000000" d="M2093.0776,-538.5C2131.8744,-538.5 2144.0742,-538.5 2178.2997,-538.5"/>
<polygon fill="#000000" stroke="#000000" points="2178.5776,-542.0001 2188.5776,-538.5 2178.5775,-535.0001 2178.5776,-542.0001"/>
</g>
<!-- x19 -->
<g id="node35" class="node">
<title>x19</title>
<path fill="none" stroke="#000000" d="M2527.5776,-611.5C2527.5776,-611.5 2566.5776,-611.5 2566.5776,-611.5 2572.5776,-611.5 2578.5776,-617.5 2578.5776,-623.5 2578.5776,-623.5 2578.5776,-635.5 2578.5776,-635.5 2578.5776,-641.5 2572.5776,-647.5 2566.5776,-647.5 2566.5776,-647.5 2527.5776,-647.5 2527.5776,-647.5 2521.5776,-647.5 2515.5776,-641.5 2515.5776,-635.5 2515.5776,-635.5 2515.5776,-623.5 2515.5776,-623.5 2515.5776,-617.5 2521.5776,-611.5 2527.5776,-611.5"/>
<text text-anchor="middle" x="2547.0776" y="-625.8" font-family="Times,serif" font-size="14.00" fill="#000000">0:0 &#45; 4:4</text>
</g>
<!-- c26&#45;&gt;x19 -->
<g id="edge12" class="edge">
<title>c26:e&#45;&gt;x19:w</title>
<path fill="none" stroke="#000000" d="M2436.7294,-528.1179C2477.9552,-540.1724 2462.2009,-615.8437 2503.4379,-627.8857"/>
<polygon fill="none" stroke="#000000" points="2436.4726,-528.0838 2429.9972,-531.2569 2424.5776,-526.5 2431.053,-523.3269 2436.4726,-528.0838"/>
<polygon fill="none" stroke="#000000" points="2503.6823,-627.9181 2510.1572,-624.7439 2515.5776,-629.5 2509.1026,-632.6741 2503.6823,-627.9181"/>
</g>
<!-- x18&#45;&gt;c26 -->
<g id="edge11" class="edge">
<title>x18:e&#45;&gt;c26:w</title>
<path fill="none" stroke="#000000" d="M2109.8748,-483.7662C2136.9585,-484.9862 2149.2976,-490.0358 2176.4389,-491.2409"/>
<polygon fill="none" stroke="#000000" points="2109.5748,-483.7598 2103.4896,-487.629 2097.5776,-483.5 2103.6628,-479.6308 2109.5748,-483.7598"/>
<polygon fill="none" stroke="#000000" points="2176.5803,-491.2438 2182.6643,-487.3728 2188.5776,-491.5 2182.4935,-495.371 2176.5803,-491.2438"/>
</g>
<!-- x19&#45;&gt;n7 -->
<g id="edge59" class="edge">
<title>x19:e&#45;&gt;n7:w</title>
<path fill="none" stroke="#000000" d="M2578.5776,-629.5C2635.7492,-629.5 2564.1731,-745.4224 2604.2454,-760.8184"/>
<polygon fill="#000000" stroke="#000000" points="2604.1452,-764.348 2614.5776,-762.5 2605.2697,-757.439 2604.1452,-764.348"/>
</g>
<!-- v20 -->
<g id="node36" class="node">
<title>v20</title>
<ellipse fill="none" stroke="#000000" cx="3933.7916" cy="-1194.5" rx="27" ry="18"/>
<text text-anchor="middle" x="3933.7916" y="-1190.8" font-family="Times,serif" font-size="14.00" fill="#000000">1&#39;0</text>
</g>
<!-- c27 -->
<g id="node38" class="node">
<title>c27</title>
<polygon fill="none" stroke="#000000" points="4036.2916,-1085.5 4036.2916,-1177.5 4368.2916,-1177.5 4368.2916,-1085.5 4036.2916,-1085.5"/>
<text text-anchor="middle" x="4050.2916" y="-1162.3" font-family="Times,serif" font-size="14.00" fill="#000000">I0</text>
<polyline fill="none" stroke="#000000" points="4036.2916,-1154.5 4064.2916,-1154.5 "/>
<text text-anchor="middle" x="4050.2916" y="-1139.3" font-family="Times,serif" font-size="14.00" fill="#000000">I1</text>
<polyline fill="none" stroke="#000000" points="4036.2916,-1131.5 4064.2916,-1131.5 "/>
<text text-anchor="middle" x="4050.2916" y="-1116.3" font-family="Times,serif" font-size="14.00" fill="#000000">I2</text>
<polyline fill="none" stroke="#000000" points="4036.2916,-1108.5 4064.2916,-1108.5 "/>
<text text-anchor="middle" x="4050.2916" y="-1093.3" font-family="Times,serif" font-size="14.00" fill="#000000">I3</text>
<polyline fill="none" stroke="#000000" points="4064.2916,-1085.5 4064.2916,-1177.5 "/>
<text text-anchor="middle" x="4203.2916" y="-1135.3" font-family="Times,serif" font-size="14.00" fill="#000000">LED_GREEN5_SB_LUT4_I2_O_SB_LUT4_O</text>
<text text-anchor="middle" x="4203.2916" y="-1120.3" font-family="Times,serif" font-size="14.00" fill="#000000">SB_LUT4</text>
<polyline fill="none" stroke="#000000" points="4342.2916,-1085.5 4342.2916,-1177.5 "/>
<text text-anchor="middle" x="4355.2916" y="-1127.8" font-family="Times,serif" font-size="14.00" fill="#000000">O</text>
</g>
<!-- v20&#45;&gt;c27 -->
<g id="edge88" class="edge">
<title>v20:e&#45;&gt;c27:w</title>
<path fill="none" stroke="#000000" d="M3960.7916,-1194.5C3992.9456,-1194.5 3999.3773,-1171.8987 4026.3065,-1167.3078"/>
<polygon fill="#000000" stroke="#000000" points="4026.6064,-1170.7951 4036.2916,-1166.5 4026.0419,-1163.8179 4026.6064,-1170.7951"/>
</g>
<!-- v21 -->
<g id="node37" class="node">
<title>v21</title>
<ellipse fill="none" stroke="#000000" cx="3933.7916" cy="-1140.5" rx="27" ry="18"/>
<text text-anchor="middle" x="3933.7916" y="-1136.8" font-family="Times,serif" font-size="14.00" fill="#000000">1&#39;0</text>
</g>
<!-- v21&#45;&gt;c27 -->
<g id="edge89" class="edge">
<title>v21:e&#45;&gt;c27:w</title>
<path fill="none" stroke="#000000" d="M3960.7916,-1140.5C3990.7006,-1140.5 4000.584,-1142.8796 4026.1124,-1143.4002"/>
<polygon fill="#000000" stroke="#000000" points="4026.2577,-1146.9017 4036.2916,-1143.5 4026.3264,-1139.902 4026.2577,-1146.9017"/>
</g>
<!-- x24 -->
<g id="node41" class="node">
<title>x24</title>
<path fill="none" stroke="#000000" d="M4451.2916,-1167.5C4451.2916,-1167.5 4490.2916,-1167.5 4490.2916,-1167.5 4496.2916,-1167.5 4502.2916,-1173.5 4502.2916,-1179.5 4502.2916,-1179.5 4502.2916,-1191.5 4502.2916,-1191.5 4502.2916,-1197.5 4496.2916,-1203.5 4490.2916,-1203.5 4490.2916,-1203.5 4451.2916,-1203.5 4451.2916,-1203.5 4445.2916,-1203.5 4439.2916,-1197.5 4439.2916,-1191.5 4439.2916,-1191.5 4439.2916,-1179.5 4439.2916,-1179.5 4439.2916,-1173.5 4445.2916,-1167.5 4451.2916,-1167.5"/>
<text text-anchor="middle" x="4470.7916" y="-1181.8" font-family="Times,serif" font-size="14.00" fill="#000000">0:0 &#45; 3:3</text>
</g>
<!-- c27&#45;&gt;x24 -->
<g id="edge15" class="edge">
<title>c27:e&#45;&gt;x24:w</title>
<path fill="none" stroke="#000000" d="M4380.4088,-1133.5509C4403.1666,-1142.1046 4404.4145,-1174.8894 4427.1689,-1183.447"/>
<polygon fill="none" stroke="#000000" points="4380.1233,-1133.5027 4373.5399,-1136.4452 4368.2916,-1131.5 4374.875,-1128.5574 4380.1233,-1133.5027"/>
<polygon fill="none" stroke="#000000" points="4427.46,-1183.4962 4434.0437,-1180.5543 4439.2916,-1185.5 4432.7079,-1188.442 4427.46,-1183.4962"/>
</g>
<!-- x22&#45;&gt;c27 -->
<g id="edge13" class="edge">
<title>x22:e&#45;&gt;c27:w</title>
<path fill="none" stroke="#000000" d="M3977.3101,-973.1621C4025.9975,-988.3421 3975.5711,-1102.7259 4024.3138,-1117.8506"/>
<polygon fill="none" stroke="#000000" points="3977.1784,-973.144 3970.687,-976.2843 3965.2916,-971.5 3971.783,-968.3597 3977.1784,-973.144"/>
<polygon fill="none" stroke="#000000" points="4024.4038,-1117.8629 4030.8934,-1114.7188 4036.2916,-1119.5 4029.802,-1122.644 4024.4038,-1117.8629"/>
</g>
<!-- x23&#45;&gt;c27 -->
<g id="edge14" class="edge">
<title>x23:e&#45;&gt;c27:w</title>
<path fill="none" stroke="#000000" d="M3858.1156,-1202.5898C3887.8739,-1191.6481 3866.3274,-1136.6081 3902.2916,-1113.5 3949.2462,-1083.3301 3972.8257,-1094.5639 4024.1487,-1096.2929"/>
<polygon fill="none" stroke="#000000" points="3857.7555,-1202.646 3852.4456,-1207.525 3845.8996,-1204.5 3851.2096,-1199.621 3857.7555,-1202.646"/>
<polygon fill="none" stroke="#000000" points="4024.2933,-1096.2952 4030.3607,-1092.3982 4036.2916,-1096.5 4030.2242,-1100.397 4024.2933,-1096.2952"/>
</g>
<!-- x24&#45;&gt;n7 -->
<g id="edge60" class="edge">
<title>x24:e&#45;&gt;n7:w</title>
<path fill="none" stroke="#000000" d="M4502.7916,-1185.5C4511.0138,-1185.5 4508.5102,-1198.0922 4502.7916,-1204 4336.5547,-1375.7373 4204.2754,-1217.6106 3965.2916,-1221.5 3937.2953,-1221.9556 3927.5943,-1233.4904 3902.2916,-1221.5 3879.4586,-1210.6799 3887.2474,-1191.6164 3866.2916,-1177.5 3543.0528,-959.7579 3386.5379,-1083.5428 3016.4022,-961.5 2925.8192,-931.6326 2549.2211,-776.6674 2604.3838,-763.4052"/>
<polygon fill="#000000" stroke="#000000" points="2604.842,-766.8783 2614.4899,-762.5 2604.2174,-759.9062 2604.842,-766.8783"/>
</g>
<!-- v25 -->
<g id="node42" class="node">
<title>v25</title>
<ellipse fill="none" stroke="#000000" cx="2066.0776" cy="-925.5" rx="27" ry="18"/>
<text text-anchor="middle" x="2066.0776" y="-921.8" font-family="Times,serif" font-size="14.00" fill="#000000">1&#39;0</text>
</g>
<!-- v25&#45;&gt;c28 -->
<g id="edge90" class="edge">
<title>v25:e&#45;&gt;c28:w</title>
<path fill="none" stroke="#000000" d="M2093.0776,-925.5C2118.5543,-925.5 2108.2591,-886.3582 2123.675,-875.3495"/>
<polygon fill="#000000" stroke="#000000" points="2124.9354,-878.6289 2133.5776,-872.5 2122.9996,-871.9019 2124.9354,-878.6289"/>
</g>
<!-- v26 -->
<g id="node43" class="node">
<title>v26</title>
<ellipse fill="none" stroke="#000000" cx="2066.0776" cy="-871.5" rx="27" ry="18"/>
<text text-anchor="middle" x="2066.0776" y="-867.8" font-family="Times,serif" font-size="14.00" fill="#000000">1&#39;0</text>
</g>
<!-- v26&#45;&gt;c28 -->
<g id="edge91" class="edge">
<title>v26:e&#45;&gt;c28:w</title>
<path fill="none" stroke="#000000" d="M2093.0776,-871.5C2109.561,-871.5 2112.477,-857.2545 2123.6607,-851.6899"/>
<polygon fill="#000000" stroke="#000000" points="2124.5675,-855.074 2133.5776,-849.5 2123.0581,-848.2387 2124.5675,-855.074"/>
</g>
<!-- x28 -->
<g id="node46" class="node">
<title>x28</title>
<path fill="none" stroke="#000000" d="M2527.5776,-770.5C2527.5776,-770.5 2566.5776,-770.5 2566.5776,-770.5 2572.5776,-770.5 2578.5776,-776.5 2578.5776,-782.5 2578.5776,-782.5 2578.5776,-794.5 2578.5776,-794.5 2578.5776,-800.5 2572.5776,-806.5 2566.5776,-806.5 2566.5776,-806.5 2527.5776,-806.5 2527.5776,-806.5 2521.5776,-806.5 2515.5776,-800.5 2515.5776,-794.5 2515.5776,-794.5 2515.5776,-782.5 2515.5776,-782.5 2515.5776,-776.5 2521.5776,-770.5 2527.5776,-770.5"/>
<text text-anchor="middle" x="2547.0776" y="-784.8" font-family="Times,serif" font-size="14.00" fill="#000000">0:0 &#45; 2:2</text>
</g>
<!-- c28&#45;&gt;x28 -->
<g id="edge17" class="edge">
<title>c28:e&#45;&gt;x28:w</title>
<path fill="none" stroke="#000000" d="M2490.9254,-832.6226C2498.7652,-823.2302 2496.3921,-802.7345 2504.2463,-793.3577"/>
<polygon fill="none" stroke="#000000" points="2490.6023,-832.7613 2486.6695,-838.8056 2479.5776,-837.5 2483.5104,-831.4557 2490.6023,-832.7613"/>
<polygon fill="none" stroke="#000000" points="2504.5483,-793.2283 2508.4869,-787.1877 2515.5776,-788.5 2511.639,-794.5406 2504.5483,-793.2283"/>
</g>
<!-- x27&#45;&gt;c28 -->
<g id="edge16" class="edge">
<title>x27:e&#45;&gt;c28:w</title>
<path fill="none" stroke="#000000" d="M2109.1045,-727.3103C2123.8946,-740.6252 2107.3283,-784.9998 2121.8891,-798.5418"/>
<polygon fill="none" stroke="#000000" points="2108.9712,-727.2663 2102.0189,-729.1811 2097.5776,-723.5 2104.5298,-721.5853 2108.9712,-727.2663"/>
<polygon fill="none" stroke="#000000" points="2122.2116,-798.651 2129.1776,-796.7868 2133.5776,-802.5 2126.6116,-804.3641 2122.2116,-798.651"/>
</g>
<!-- x28&#45;&gt;n7 -->
<g id="edge61" class="edge">
<title>x28:e&#45;&gt;n7:w</title>
<path fill="none" stroke="#000000" d="M2578.5776,-788.5C2594.1509,-788.5 2595.2735,-772.3119 2604.7505,-765.4825"/>
<polygon fill="#000000" stroke="#000000" points="2606.0251,-768.7534 2614.5776,-762.5 2603.9921,-762.0551 2606.0251,-768.7534"/>
</g>
<!-- v29 -->
<g id="node47" class="node">
<title>v29</title>
<ellipse fill="none" stroke="#000000" cx="3933.7916" cy="-851.5" rx="27" ry="18"/>
<text text-anchor="middle" x="3933.7916" y="-847.8" font-family="Times,serif" font-size="14.00" fill="#000000">1&#39;0</text>
</g>
<!-- c29 -->
<g id="node49" class="node">
<title>c29</title>
<polygon fill="none" stroke="#000000" points="4029.2916,-739.5 4029.2916,-831.5 4375.2916,-831.5 4375.2916,-739.5 4029.2916,-739.5"/>
<text text-anchor="middle" x="4043.2916" y="-816.3" font-family="Times,serif" font-size="14.00" fill="#000000">I0</text>
<polyline fill="none" stroke="#000000" points="4029.2916,-808.5 4057.2916,-808.5 "/>
<text text-anchor="middle" x="4043.2916" y="-793.3" font-family="Times,serif" font-size="14.00" fill="#000000">I1</text>
<polyline fill="none" stroke="#000000" points="4029.2916,-785.5 4057.2916,-785.5 "/>
<text text-anchor="middle" x="4043.2916" y="-770.3" font-family="Times,serif" font-size="14.00" fill="#000000">I2</text>
<polyline fill="none" stroke="#000000" points="4029.2916,-762.5 4057.2916,-762.5 "/>
<text text-anchor="middle" x="4043.2916" y="-747.3" font-family="Times,serif" font-size="14.00" fill="#000000">I3</text>
<polyline fill="none" stroke="#000000" points="4057.2916,-739.5 4057.2916,-831.5 "/>
<text text-anchor="middle" x="4203.2916" y="-789.3" font-family="Times,serif" font-size="14.00" fill="#000000">LED_GREEN5_SB_LUT4_I2_O_SB_LUT4_O_2</text>
<text text-anchor="middle" x="4203.2916" y="-774.3" font-family="Times,serif" font-size="14.00" fill="#000000">SB_LUT4</text>
<polyline fill="none" stroke="#000000" points="4349.2916,-739.5 4349.2916,-831.5 "/>
<text text-anchor="middle" x="4362.2916" y="-781.8" font-family="Times,serif" font-size="14.00" fill="#000000">O</text>
</g>
<!-- v29&#45;&gt;c29 -->
<g id="edge92" class="edge">
<title>v29:e&#45;&gt;c29:w</title>
<path fill="none" stroke="#000000" d="M3960.7916,-851.5C3990.423,-851.5 3995.0897,-827.1256 4019.0651,-821.6033"/>
<polygon fill="#000000" stroke="#000000" points="4019.7247,-825.0525 4029.2916,-820.5 4018.9738,-818.0929 4019.7247,-825.0525"/>
</g>
<!-- v30 -->
<g id="node48" class="node">
<title>v30</title>
<ellipse fill="none" stroke="#000000" cx="3933.7916" cy="-797.5" rx="27" ry="18"/>
<text text-anchor="middle" x="3933.7916" y="-793.8" font-family="Times,serif" font-size="14.00" fill="#000000">1&#39;0</text>
</g>
<!-- v30&#45;&gt;c29 -->
<g id="edge93" class="edge">
<title>v30:e&#45;&gt;c29:w</title>
<path fill="none" stroke="#000000" d="M3960.7916,-797.5C3987.5494,-797.5 3996.669,-797.5 4019.155,-797.5"/>
<polygon fill="#000000" stroke="#000000" points="4019.2916,-801.0001 4029.2916,-797.5 4019.2915,-794.0001 4019.2916,-801.0001"/>
</g>
<!-- x33 -->
<g id="node52" class="node">
<title>x33</title>
<path fill="none" stroke="#000000" d="M4451.2916,-902.5C4451.2916,-902.5 4490.2916,-902.5 4490.2916,-902.5 4496.2916,-902.5 4502.2916,-908.5 4502.2916,-914.5 4502.2916,-914.5 4502.2916,-926.5 4502.2916,-926.5 4502.2916,-932.5 4496.2916,-938.5 4490.2916,-938.5 4490.2916,-938.5 4451.2916,-938.5 4451.2916,-938.5 4445.2916,-938.5 4439.2916,-932.5 4439.2916,-926.5 4439.2916,-926.5 4439.2916,-914.5 4439.2916,-914.5 4439.2916,-908.5 4445.2916,-902.5 4451.2916,-902.5"/>
<text text-anchor="middle" x="4470.7916" y="-916.8" font-family="Times,serif" font-size="14.00" fill="#000000">0:0 &#45; 1:1</text>
</g>
<!-- c29&#45;&gt;x33 -->
<g id="edge20" class="edge">
<title>c29:e&#45;&gt;x33:w</title>
<path fill="none" stroke="#000000" d="M4387.3868,-787.4084C4429.3236,-802.5991 4385.1891,-903.7322 4427.3888,-918.6605"/>
<polygon fill="none" stroke="#000000" points="4387.1449,-787.3703 4380.5948,-790.3863 4375.2916,-785.5 4381.8417,-782.484 4387.1449,-787.3703"/>
<polygon fill="none" stroke="#000000" points="4427.4324,-918.6671 4433.9729,-915.6305 4439.2916,-920.5 4432.751,-923.5366 4427.4324,-918.6671"/>
</g>
<!-- x31&#45;&gt;c29 -->
<g id="edge18" class="edge">
<title>x31:e&#45;&gt;c29:w</title>
<path fill="none" stroke="#000000" d="M3977.2504,-744.2555C3994.2423,-749.6862 4000.2386,-766.1779 4017.1531,-771.6865"/>
<polygon fill="none" stroke="#000000" points="3977.1643,-744.243 3970.647,-747.3291 3965.2916,-742.5 3971.8089,-739.4139 3977.1643,-744.243"/>
<polygon fill="none" stroke="#000000" points="4017.4233,-771.7268 4023.9485,-768.6573 4029.2916,-773.5 4022.7664,-776.5695 4017.4233,-771.7268"/>
</g>
<!-- x32&#45;&gt;c29 -->
<g id="edge19" class="edge">
<title>x32:e&#45;&gt;c29:w</title>
<path fill="none" stroke="#000000" d="M3977.2066,-689.8927C3998.9335,-699.8721 3995.6484,-738.121 4017.3713,-748.1049"/>
<polygon fill="none" stroke="#000000" points="3977.0567,-689.8627 3970.3866,-692.6031 3965.2916,-687.5 3971.9617,-684.7597 3977.0567,-689.8627"/>
<polygon fill="none" stroke="#000000" points="4017.5267,-748.136 4024.1971,-745.3964 4029.2916,-750.5 4022.6211,-753.2396 4017.5267,-748.136"/>
</g>
<!-- x33&#45;&gt;n7 -->
<g id="edge62" class="edge">
<title>x33:e&#45;&gt;n7:w</title>
<path fill="none" stroke="#000000" d="M4502.7916,-920.5C4556.3545,-920.5 4454.4187,-972.5312 4403.2916,-988.5 4202.0359,-1051.3593 4144.6355,-1056.5 3933.7916,-1056.5 3813.8996,-1056.5 3813.8996,-1056.5 3813.8996,-1056.5 3647.1513,-1056.5 3623.2032,-942.5 3456.4549,-942.5 3232.4022,-942.5 3232.4022,-942.5 3232.4022,-942.5 2948.4931,-942.5 2787.9299,-1005.273 2614.4899,-780.5 2612.5808,-778.0259 2610.9425,-774.7381 2610.1315,-771.6499"/>
<polygon fill="#000000" stroke="#000000" points="2613.3493,-773.0333 2614.4899,-762.5 2607.0296,-770.023 2613.3493,-773.0333"/>
</g>
<!-- v34 -->
<g id="node53" class="node">
<title>v34</title>
<ellipse fill="none" stroke="#000000" cx="3933.7916" cy="-594.5" rx="27" ry="18"/>
<text text-anchor="middle" x="3933.7916" y="-590.8" font-family="Times,serif" font-size="14.00" fill="#000000">1&#39;0</text>
</g>
<!-- c30 -->
<g id="node56" class="node">
<title>c30</title>
<polygon fill="none" stroke="#000000" points="4029.2916,-482.5 4029.2916,-574.5 4375.2916,-574.5 4375.2916,-482.5 4029.2916,-482.5"/>
<text text-anchor="middle" x="4043.2916" y="-559.3" font-family="Times,serif" font-size="14.00" fill="#000000">I0</text>
<polyline fill="none" stroke="#000000" points="4029.2916,-551.5 4057.2916,-551.5 "/>
<text text-anchor="middle" x="4043.2916" y="-536.3" font-family="Times,serif" font-size="14.00" fill="#000000">I1</text>
<polyline fill="none" stroke="#000000" points="4029.2916,-528.5 4057.2916,-528.5 "/>
<text text-anchor="middle" x="4043.2916" y="-513.3" font-family="Times,serif" font-size="14.00" fill="#000000">I2</text>
<polyline fill="none" stroke="#000000" points="4029.2916,-505.5 4057.2916,-505.5 "/>
<text text-anchor="middle" x="4043.2916" y="-490.3" font-family="Times,serif" font-size="14.00" fill="#000000">I3</text>
<polyline fill="none" stroke="#000000" points="4057.2916,-482.5 4057.2916,-574.5 "/>
<text text-anchor="middle" x="4203.2916" y="-532.3" font-family="Times,serif" font-size="14.00" fill="#000000">LED_GREEN5_SB_LUT4_I2_O_SB_LUT4_O_3</text>
<text text-anchor="middle" x="4203.2916" y="-517.3" font-family="Times,serif" font-size="14.00" fill="#000000">SB_LUT4</text>
<polyline fill="none" stroke="#000000" points="4349.2916,-482.5 4349.2916,-574.5 "/>
<text text-anchor="middle" x="4362.2916" y="-524.8" font-family="Times,serif" font-size="14.00" fill="#000000">O</text>
</g>
<!-- v34&#45;&gt;c30 -->
<g id="edge94" class="edge">
<title>v34:e&#45;&gt;c30:w</title>
<path fill="none" stroke="#000000" d="M3960.7916,-594.5C3990.423,-594.5 3995.0897,-570.1256 4019.0651,-564.6033"/>
<polygon fill="#000000" stroke="#000000" points="4019.7247,-568.0525 4029.2916,-563.5 4018.9738,-561.0929 4019.7247,-568.0525"/>
</g>
<!-- v35 -->
<g id="node54" class="node">
<title>v35</title>
<ellipse fill="none" stroke="#000000" cx="3933.7916" cy="-540.5" rx="27" ry="18"/>
<text text-anchor="middle" x="3933.7916" y="-536.8" font-family="Times,serif" font-size="14.00" fill="#000000">1&#39;0</text>
</g>
<!-- v35&#45;&gt;c30 -->
<g id="edge95" class="edge">
<title>v35:e&#45;&gt;c30:w</title>
<path fill="none" stroke="#000000" d="M3960.7916,-540.5C3987.5494,-540.5 3996.669,-540.5 4019.155,-540.5"/>
<polygon fill="#000000" stroke="#000000" points="4019.2916,-544.0001 4029.2916,-540.5 4019.2915,-537.0001 4019.2916,-544.0001"/>
</g>
<!-- v36 -->
<g id="node55" class="node">
<title>v36</title>
<ellipse fill="none" stroke="#000000" cx="3933.7916" cy="-486.5" rx="27" ry="18"/>
<text text-anchor="middle" x="3933.7916" y="-482.8" font-family="Times,serif" font-size="14.00" fill="#000000">1&#39;0</text>
</g>
<!-- v36&#45;&gt;c30 -->
<g id="edge96" class="edge">
<title>v36:e&#45;&gt;c30:w</title>
<path fill="none" stroke="#000000" d="M3960.7916,-486.5C3990.2627,-486.5 3995.1955,-510.0881 4019.1072,-515.4323"/>
<polygon fill="#000000" stroke="#000000" points="4018.9811,-518.9382 4029.2916,-516.5 4019.711,-511.9763 4018.9811,-518.9382"/>
</g>
<!-- x38 -->
<g id="node58" class="node">
<title>x38</title>
<path fill="none" stroke="#000000" d="M4451.2916,-566.5C4451.2916,-566.5 4490.2916,-566.5 4490.2916,-566.5 4496.2916,-566.5 4502.2916,-572.5 4502.2916,-578.5 4502.2916,-578.5 4502.2916,-590.5 4502.2916,-590.5 4502.2916,-596.5 4496.2916,-602.5 4490.2916,-602.5 4490.2916,-602.5 4451.2916,-602.5 4451.2916,-602.5 4445.2916,-602.5 4439.2916,-596.5 4439.2916,-590.5 4439.2916,-590.5 4439.2916,-578.5 4439.2916,-578.5 4439.2916,-572.5 4445.2916,-566.5 4451.2916,-566.5"/>
<text text-anchor="middle" x="4470.7916" y="-580.8" font-family="Times,serif" font-size="14.00" fill="#000000">0:0 &#45; 0:0</text>
</g>
<!-- c30&#45;&gt;x38 -->
<g id="edge22" class="edge">
<title>c30:e&#45;&gt;x38:w</title>
<path fill="none" stroke="#000000" d="M4387.3429,-530.9063C4407.64,-540.1177 4406.9927,-573.0773 4427.3988,-582.165"/>
<polygon fill="none" stroke="#000000" points="4387.0593,-530.8497 4380.3922,-533.5974 4375.2916,-528.5 4381.9587,-525.7523 4387.0593,-530.8497"/>
<polygon fill="none" stroke="#000000" points="4427.5164,-582.1881 4434.1746,-579.419 4439.2916,-584.5 4432.6333,-587.2691 4427.5164,-582.1881"/>
</g>
<!-- x37&#45;&gt;c30 -->
<g id="edge21" class="edge">
<title>x37:e&#45;&gt;c30:w</title>
<path fill="none" stroke="#000000" d="M3977.1328,-433.8548C3998.7696,-443.6757 3995.8123,-481.3175 4017.4451,-491.1429"/>
<polygon fill="none" stroke="#000000" points="3977.0611,-433.8406 3970.3961,-436.5935 3965.2916,-431.5 3971.9565,-428.7471 3977.0611,-433.8406"/>
<polygon fill="none" stroke="#000000" points="4017.5223,-491.1582 4024.1875,-488.406 4029.2916,-493.5 4022.6263,-496.2522 4017.5223,-491.1582"/>
</g>
<!-- x38&#45;&gt;n7 -->
<g id="edge63" class="edge">
<title>x38:e&#45;&gt;n7:w</title>
<path fill="none" stroke="#000000" d="M4502.7916,-584.5C4511.0138,-584.5 4508.3215,-596.9152 4502.7916,-603 4322.4709,-801.4118 4168.7078,-630.4143 3902.2916,-660.5 3491.7161,-706.8653 3392.7223,-753.7774 2980.4022,-780.5 2980.4022,-780.5 2683.7559,-765.9073 2624.6584,-763.0002"/>
<polygon fill="#000000" stroke="#000000" points="2624.6498,-759.4956 2614.4899,-762.5 2624.3058,-766.4872 2624.6498,-759.4956"/>
</g>
<!-- x40 -->
<g id="node61" class="node">
<title>x40</title>
<path fill="none" stroke="#000000" d="M3575.5076,-541.5C3575.5076,-541.5 3614.5076,-541.5 3614.5076,-541.5 3620.5076,-541.5 3626.5076,-547.5 3626.5076,-553.5 3626.5076,-553.5 3626.5076,-565.5 3626.5076,-565.5 3626.5076,-571.5 3620.5076,-577.5 3614.5076,-577.5 3614.5076,-577.5 3575.5076,-577.5 3575.5076,-577.5 3569.5076,-577.5 3563.5076,-571.5 3563.5076,-565.5 3563.5076,-565.5 3563.5076,-553.5 3563.5076,-553.5 3563.5076,-547.5 3569.5076,-541.5 3575.5076,-541.5"/>
<text text-anchor="middle" x="3595.0076" y="-555.8" font-family="Times,serif" font-size="14.00" fill="#000000">0:0 &#45; 3:3</text>
</g>
<!-- c31&#45;&gt;x40 -->
<g id="edge24" class="edge">
<title>c31:e&#45;&gt;x40:w</title>
<path fill="none" stroke="#000000" d="M3339.536,-515.6962C3432.082,-518.7402 3458.7723,-556.2301 3551.2681,-559.3003"/>
<polygon fill="none" stroke="#000000" points="3339.4006,-515.6941 3333.3367,-519.5965 3327.4022,-515.5 3333.4661,-511.5976 3339.4006,-515.6941"/>
<polygon fill="none" stroke="#000000" points="3551.5092,-559.3042 3557.5737,-555.4026 3563.5076,-559.5 3557.4432,-563.4016 3551.5092,-559.3042"/>
</g>
<!-- x39&#45;&gt;c31 -->
<g id="edge23" class="edge">
<title>x39:e&#45;&gt;c31:w</title>
<path fill="none" stroke="#000000" d="M3091.5774,-682.8273C3144.1147,-666.3725 3072.7146,-533.7054 3125.1834,-517.1863"/>
<polygon fill="none" stroke="#000000" points="3091.2905,-682.8667 3085.8908,-687.6461 3079.4022,-684.5 3084.8019,-679.7206 3091.2905,-682.8667"/>
<polygon fill="none" stroke="#000000" points="3125.5148,-517.1407 3130.9116,-512.3579 3137.4022,-515.5 3132.0054,-520.2828 3125.5148,-517.1407"/>
</g>
<!-- x40&#45;&gt;n8 -->
<g id="edge69" class="edge">
<title>x40:e&#45;&gt;n8:w</title>
<path fill="none" stroke="#000000" d="M3626.5076,-559.5C3683.5026,-559.5 3699.5219,-572.7937 3751.715,-574.3515"/>
<polygon fill="#000000" stroke="#000000" points="3751.8496,-577.8538 3761.8996,-574.5 3751.9517,-570.8545 3751.8496,-577.8538"/>
</g>
<!-- x42 -->
<g id="node64" class="node">
<title>x42</title>
<path fill="none" stroke="#000000" d="M3674.5076,-618.5C3674.5076,-618.5 3713.5076,-618.5 3713.5076,-618.5 3719.5076,-618.5 3725.5076,-624.5 3725.5076,-630.5 3725.5076,-630.5 3725.5076,-642.5 3725.5076,-642.5 3725.5076,-648.5 3719.5076,-654.5 3713.5076,-654.5 3713.5076,-654.5 3674.5076,-654.5 3674.5076,-654.5 3668.5076,-654.5 3662.5076,-648.5 3662.5076,-642.5 3662.5076,-642.5 3662.5076,-630.5 3662.5076,-630.5 3662.5076,-624.5 3668.5076,-618.5 3674.5076,-618.5"/>
<text text-anchor="middle" x="3694.0076" y="-632.8" font-family="Times,serif" font-size="14.00" fill="#000000">0:0 &#45; 1:1</text>
</g>
<!-- c32&#45;&gt;x42 -->
<g id="edge26" class="edge">
<title>c32:e&#45;&gt;x42:w</title>
<path fill="none" stroke="#000000" d="M3346.5663,-661.441C3478.7654,-660.1432 3518.1116,-637.8639 3650.2818,-636.5596"/>
<polygon fill="none" stroke="#000000" points="3346.402,-661.4417 3340.4215,-665.4708 3334.4022,-661.5 3340.3826,-657.4709 3346.402,-661.4417"/>
<polygon fill="none" stroke="#000000" points="3650.5078,-636.5586 3656.4882,-632.5294 3662.5076,-636.5 3656.5273,-640.5293 3650.5078,-636.5586"/>
</g>
<!-- x41&#45;&gt;c32 -->
<g id="edge25" class="edge">
<title>x41:e&#45;&gt;c32:w</title>
<path fill="none" stroke="#000000" d="M3091.1813,-736.5376C3111.2862,-724.1822 3098.5186,-676.8264 3118.6182,-664.4654"/>
<polygon fill="none" stroke="#000000" points="3091.0398,-736.5731 3086.1966,-741.9157 3079.4022,-739.5 3084.2453,-734.1573 3091.0398,-736.5731"/>
<polygon fill="none" stroke="#000000" points="3118.765,-664.4285 3123.6074,-659.0852 3130.4022,-661.5 3125.5597,-666.8433 3118.765,-664.4285"/>
</g>
<!-- x42&#45;&gt;n8 -->
<g id="edge70" class="edge">
<title>x42:e&#45;&gt;n8:w</title>
<path fill="none" stroke="#000000" d="M3725.5076,-636.5C3753.2158,-636.5 3736.2067,-589.8751 3752.0369,-577.4904"/>
<polygon fill="#000000" stroke="#000000" points="3753.3454,-580.7511 3761.8996,-574.5 3751.3142,-574.0522 3753.3454,-580.7511"/>
</g>
<!-- x44 -->
<g id="node67" class="node">
<title>x44</title>
<path fill="none" stroke="#000000" d="M3436.9549,-1081.5C3436.9549,-1081.5 3475.9549,-1081.5 3475.9549,-1081.5 3481.9549,-1081.5 3487.9549,-1087.5 3487.9549,-1093.5 3487.9549,-1093.5 3487.9549,-1105.5 3487.9549,-1105.5 3487.9549,-1111.5 3481.9549,-1117.5 3475.9549,-1117.5 3475.9549,-1117.5 3436.9549,-1117.5 3436.9549,-1117.5 3430.9549,-1117.5 3424.9549,-1111.5 3424.9549,-1105.5 3424.9549,-1105.5 3424.9549,-1093.5 3424.9549,-1093.5 3424.9549,-1087.5 3430.9549,-1081.5 3436.9549,-1081.5"/>
<text text-anchor="middle" x="3456.4549" y="-1095.8" font-family="Times,serif" font-size="14.00" fill="#000000">0:0 &#45; 0:0</text>
</g>
<!-- c33&#45;&gt;x44 -->
<g id="edge28" class="edge">
<title>c33:e&#45;&gt;x44:w</title>
<path fill="none" stroke="#000000" d="M3346.7504,-1132.4452C3374.8291,-1127.3788 3384.0657,-1105.5817 3412.175,-1100.5425"/>
<polygon fill="none" stroke="#000000" points="3346.3586,-1132.4785 3340.7209,-1136.9748 3334.4022,-1133.5 3340.0399,-1129.0038 3346.3586,-1132.4785"/>
<polygon fill="none" stroke="#000000" points="3412.4979,-1100.5152 3418.138,-1096.0219 3424.4549,-1099.5 3418.8148,-1103.9933 3412.4979,-1100.5152"/>
</g>
<!-- x43&#45;&gt;c33 -->
<g id="edge27" class="edge">
<title>x43:e&#45;&gt;c33:w</title>
<path fill="none" stroke="#000000" d="M3091.2,-1106.0578C3102.7836,-1111.7256 3107.0283,-1125.2869 3118.6175,-1130.9487"/>
<polygon fill="none" stroke="#000000" points="3091.1297,-1106.0426 3084.4184,-1108.6805 3079.4022,-1103.5 3086.1135,-1100.8621 3091.1297,-1106.0426"/>
<polygon fill="none" stroke="#000000" points="3118.6739,-1130.9608 3125.3844,-1128.321 3130.4022,-1133.5 3123.6916,-1136.1398 3118.6739,-1130.9608"/>
</g>
<!-- x44&#45;&gt;n8 -->
<g id="edge71" class="edge">
<title>x44:e&#45;&gt;n8:w</title>
<path fill="none" stroke="#000000" d="M3488.4549,-1099.5C3708.6317,-1099.5 3631.4058,-863.5545 3725.5076,-664.5 3742.2913,-628.9974 3722.9282,-583.566 3751.844,-575.6892"/>
<polygon fill="#000000" stroke="#000000" points="3752.3799,-579.1503 3761.8996,-574.5 3751.5577,-572.1987 3752.3799,-579.1503"/>
</g>
<!-- x46 -->
<g id="node69" class="node">
<title>x46</title>
<path fill="none" stroke="#000000" d="M4182.7916,-942.5C4182.7916,-942.5 4221.7916,-942.5 4221.7916,-942.5 4227.7916,-942.5 4233.7916,-948.5 4233.7916,-954.5 4233.7916,-954.5 4233.7916,-966.5 4233.7916,-966.5 4233.7916,-972.5 4227.7916,-978.5 4221.7916,-978.5 4221.7916,-978.5 4182.7916,-978.5 4182.7916,-978.5 4176.7916,-978.5 4170.7916,-972.5 4170.7916,-966.5 4170.7916,-966.5 4170.7916,-954.5 4170.7916,-954.5 4170.7916,-948.5 4176.7916,-942.5 4182.7916,-942.5"/>
<text text-anchor="middle" x="4202.2916" y="-956.8" font-family="Times,serif" font-size="14.00" fill="#000000">1:0 &#45; 1:0</text>
</g>
<!-- x45&#45;&gt;x46 -->
<g id="edge29" class="edge">
<title>x45:e&#45;&gt;x46:w</title>
<path fill="none" stroke="#000000" stroke-width="3" d="M3977.4696,-911.7878C4056.8061,-915.6152 4078.7977,-956.3991 4158.1535,-960.2142"/>
<polygon fill="none" stroke="#000000" stroke-width="3" points="3977.2882,-911.7836 3971.1954,-915.6407 3965.2916,-911.5 3971.3844,-907.6429 3977.2882,-911.7836"/>
<polygon fill="none" stroke="#000000" stroke-width="3" points="4158.2949,-960.2174 4164.3874,-956.3598 4170.2916,-960.5 4164.199,-964.3576 4158.2949,-960.2174"/>
</g>
<!-- x46&#45;&gt;n5 -->
<g id="edge48" class="edge">
<title>x46:e&#45;&gt;n5:w</title>
<path fill="none" stroke="#000000" stroke-width="3" d="M4234.2916,-960.5C4242.5138,-960.5 4240.0365,-973.1178 4234.2916,-979 4225.2446,-988.2631 4013.9573,-981.811 4001.2916,-984.5 3984.3361,-988.0997 3982.0431,-995.0469 3965.2916,-999.5 3899.7545,-1016.9217 3881.7128,-1018.5 3813.8996,-1018.5 3232.4022,-1018.5 3232.4022,-1018.5 3232.4022,-1018.5 2699.2282,-1018.5 2551.1559,-1084.4898 2034.5776,-952.5 1931.3513,-926.1249 1514.3994,-738.2232 1582.3777,-724.3137"/>
<polygon fill="#000000" stroke="#000000" stroke-width="3" points="1582.7584,-727.7944 1592.4438,-723.5 1582.1943,-720.8172 1582.7584,-727.7944"/>
</g>
<!-- x48 -->
<g id="node71" class="node">
<title>x48</title>
<path fill="none" stroke="#000000" d="M3674.5076,-499.5C3674.5076,-499.5 3713.5076,-499.5 3713.5076,-499.5 3719.5076,-499.5 3725.5076,-505.5 3725.5076,-511.5 3725.5076,-511.5 3725.5076,-533.5 3725.5076,-533.5 3725.5076,-539.5 3719.5076,-545.5 3713.5076,-545.5 3713.5076,-545.5 3674.5076,-545.5 3674.5076,-545.5 3668.5076,-545.5 3662.5076,-539.5 3662.5076,-533.5 3662.5076,-533.5 3662.5076,-511.5 3662.5076,-511.5 3662.5076,-505.5 3668.5076,-499.5 3674.5076,-499.5"/>
<text text-anchor="middle" x="3694.0076" y="-530.3" font-family="Times,serif" font-size="14.00" fill="#000000">1:1 &#45; 4:4</text>
<polyline fill="none" stroke="#000000" points="3662.5076,-522.5 3725.5076,-522.5 "/>
<text text-anchor="middle" x="3694.0076" y="-507.3" font-family="Times,serif" font-size="14.00" fill="#000000">0:0 &#45; 2:2</text>
</g>
<!-- x47&#45;&gt;x48 -->
<g id="edge30" class="edge">
<title>x47:e&#45;&gt;x48:w</title>
<path fill="none" stroke="#000000" stroke-width="3" d="M3638.2516,-440.1953C3654.8838,-454.3414 3634.0668,-504.958 3650.894,-518.9142"/>
<polygon fill="none" stroke="#000000" stroke-width="3" points="3637.9544,-440.1018 3631.0304,-442.1165 3626.5076,-436.5 3633.4316,-434.4853 3637.9544,-440.1018"/>
<polygon fill="none" stroke="#000000" stroke-width="3" points="3651.0417,-518.9597 3657.9548,-516.9079 3662.5076,-522.5 3655.5946,-524.5518 3651.0417,-518.9597"/>
</g>
<!-- x48&#45;&gt;n8 -->
<g id="edge72" class="edge">
<title>x48:e&#45;&gt;n8:w</title>
<path fill="none" stroke="#000000" d="M3725.5076,-510.5C3754.1389,-510.5 3735.4757,-559.5 3752.2834,-571.75"/>
<polygon fill="#000000" stroke="#000000" points="3751.3227,-575.1155 3761.8996,-574.5 3753.2474,-568.3853 3751.3227,-575.1155"/>
</g>
<!-- x48&#45;&gt;n8 -->
<g id="edge73" class="edge">
<title>x48:e&#45;&gt;n8:w</title>
<path fill="none" stroke="#000000" d="M3725.5076,-534.5C3745.4112,-534.5 3740.8242,-561.9316 3752.3091,-571.3613"/>
<polygon fill="#000000" stroke="#000000" points="3751.307,-574.7159 3761.8996,-574.5 3753.4843,-568.0631 3751.307,-574.7159"/>
</g>
</g>
</svg>
